Courier Prime Bold Italic.ufo
<glyph name="exclam" format="1">
  <advance width="1228"/>
  <unicode hex="0021"/>
  <outline>
    <contour>
      <point x="653" y="1269" type="line" smooth="yes"/>
      <point x="623" y="1269"/>
      <point x="606" y="1254"/>
      <point x="603" y="1219" type="curve" smooth="yes"/>
      <point x="544" y="562" type="line" smooth="yes"/>
      <point x="541" y="524"/>
      <point x="571" y="504"/>
      <point x="633" y="504" type="curve" smooth="yes"/>
      <point x="697" y="504"/>
      <point x="732" y="523"/>
      <point x="742" y="562" type="curve" smooth="yes"/>
      <point x="915" y="1219" type="line" smooth="yes"/>
      <point x="924" y="1254"/>
      <point x="913" y="1269"/>
      <point x="883" y="1269" type="curve" smooth="yes"/>
    </contour>
    <contour>
      <point x="497" y="330"/>
      <point x="454" y="312"/>
      <point x="446" y="267" type="curve" smooth="yes"/>
      <point x="408" y="53" type="line" smooth="yes"/>
      <point x="400" y="8"/>
      <point x="449" y="-10"/>
      <point x="558" y="-10" type="curve" smooth="yes"/>
      <point x="667" y="-10"/>
      <point x="710" y="8"/>
      <point x="718" y="53" type="curve" smooth="yes"/>
      <point x="756" y="267" type="line" smooth="yes"/>
      <point x="764" y="312"/>
      <point x="715" y="330"/>
      <point x="606" y="330" type="curve" smooth="yes"/>
    </contour>
  </outline>
</glyph>
<glyph name="quotesingle" format="1">
  <advance width="1228"/>
  <unicode hex="0027"/>
  <outline>
    <contour>
      <point x="651" y="1269" type="line" smooth="yes"/>
      <point x="621" y="1269"/>
      <point x="603" y="1254"/>
      <point x="601" y="1219" type="curve" smooth="yes"/>
      <point x="571" y="739" type="line" smooth="yes"/>
      <point x="568" y="698"/>
      <point x="589" y="671"/>
      <point x="662" y="671" type="curve" smooth="yes"/>
      <point x="733" y="671"/>
      <point x="765" y="697"/>
      <point x="777" y="739" type="curve" smooth="yes"/>
      <point x="917" y="1219" type="line" smooth="yes"/>
      <point x="927" y="1254"/>
      <point x="915" y="1269"/>
      <point x="885" y="1269" type="curve" smooth="yes"/>
    </contour>
  </outline>
</glyph>
<glyph name="parenright" format="1">
  <advance width="1228"/>
  <unicode hex="0029"/>
  <outline>
    <contour>
      <point x="592" y="1398"/>
      <point x="542" y="1364"/>
      <point x="506" y="1318" type="curve" smooth="yes"/>
      <point x="469" y="1271"/>
      <point x="448" y="1211"/>
      <point x="476" y="1191" type="curve" smooth="yes"/>
      <point x="664" y="1058"/>
      <point x="758" y="890"/>
      <point x="758" y="672" type="curve" smooth="yes"/>
      <point x="758" y="308"/>
      <point x="555" y="63"/>
      <point x="213" y="-123" type="curve" smooth="yes"/>
      <point x="178" y="-142"/>
      <point x="184" y="-209"/>
      <point x="211" y="-264" type="curve" smooth="yes"/>
      <point x="237" y="-317"/>
      <point x="282" y="-360"/>
      <point x="327" y="-337" type="curve"/>
      <point x="770" y="-110"/>
      <point x="1004" y="265"/>
      <point x="1004" y="677" type="curve" smooth="yes"/>
      <point x="1004" y="1014"/>
      <point x="824" y="1252"/>
      <point x="629" y="1375" type="curve" smooth="yes"/>
    </contour>
  </outline>
</glyph>
<glyph name="asterisk" format="1">
  <advance width="1228"/>
  <unicode hex="002A"/>
  <outline>
    <contour>
      <point x="655" y="1209"/>
      <point x="612" y="1149"/>
      <point x="616" y="1075" type="curve" smooth="yes"/>
      <point x="627" y="870" type="line"/>
      <point x="467" y="978" type="line" smooth="yes"/>
      <point x="409" y="1017"/>
      <point x="320" y="999"/>
      <point x="286" y="911" type="curve" smooth="yes"/>
      <point x="251" y="820"/>
      <point x="291" y="764"/>
      <point x="366" y="757" type="curve" smooth="yes"/>
      <point x="559" y="739" type="line"/>
      <point x="384" y="607" type="line" smooth="yes"/>
      <point x="318" y="557"/>
      <point x="303" y="479"/>
      <point x="369" y="425" type="curve" smooth="yes"/>
      <point x="436" y="370"/>
      <point x="512" y="394"/>
      <point x="554" y="466" type="curve" smooth="yes"/>
      <point x="665" y="658" type="line"/>
      <point x="723" y="460" type="line" smooth="yes"/>
      <point x="743" y="391"/>
      <point x="803" y="365"/>
      <point x="887" y="409" type="curve" smooth="yes"/>
      <point x="975" y="455"/>
      <point x="972" y="537"/>
      <point x="924" y="587" type="curve" smooth="yes"/>
      <point x="784" y="729" type="line"/>
      <point x="996" y="748" type="line" smooth="yes"/>
      <point x="1078" y="755"/>
      <point x="1136" y="812"/>
      <point x="1115" y="899" type="curve" smooth="yes"/>
      <point x="1094" y="985"/>
      <point x="1027" y="1003"/>
      <point x="955" y="964" type="curve" smooth="yes"/>
      <point x="763" y="859" type="line"/>
      <point x="845" y="1062" type="line" smooth="yes"/>
      <point x="875" y="1136"/>
      <point x="839" y="1209"/>
      <point x="747" y="1209" type="curve" smooth="yes"/>
    </contour>
  </outline>
</glyph>
<glyph name="plus" format="1">
  <advance width="1228"/>
  <unicode hex="002B"/>
  <outline>
    <contour>
      <point x="629" y="1026"/>
      <point x="608" y="1008"/>
      <point x="600" y="963" type="curve" smooth="yes"/>
      <point x="553" y="695" type="line"/>
      <point x="285" y="695" type="line" smooth="yes"/>
      <point x="240" y="695"/>
      <point x="219" y="677"/>
      <point x="202" y="582" type="curve" smooth="yes"/>
      <point x="185" y="487"/>
      <point x="200" y="470"/>
      <point x="245" y="470" type="curve" smooth="yes"/>
      <point x="513" y="470" type="line"/>
      <point x="466" y="201" type="line" smooth="yes"/>
      <point x="458" y="156"/>
      <point x="473" y="138"/>
      <point x="568" y="138" type="curve" smooth="yes"/>
      <point x="663" y="138"/>
      <point x="683" y="156"/>
      <point x="691" y="201" type="curve" smooth="yes"/>
      <point x="738" y="470" type="line"/>
      <point x="1007" y="470" type="line" smooth="yes"/>
      <point x="1052" y="470"/>
      <point x="1073" y="487"/>
      <point x="1090" y="582" type="curve" smooth="yes"/>
      <point x="1107" y="677"/>
      <point x="1092" y="695"/>
      <point x="1047" y="695" type="curve" smooth="yes"/>
      <point x="778" y="695" type="line"/>
      <point x="825" y="963" type="line" smooth="yes"/>
      <point x="833" y="1008"/>
      <point x="819" y="1026"/>
      <point x="724" y="1026" type="curve" smooth="yes"/>
    </contour>
  </outline>
</glyph>
<glyph name="comma" format="1">
  <advance width="1228"/>
  <unicode hex="002C"/>
  <outline>
    <contour>
      <point x="498" y="354" type="line" smooth="yes"/>
      <point x="470" y="354"/>
      <point x="448" y="340"/>
      <point x="439" y="314" type="curve" smooth="yes"/>
      <point x="252" y="-228" type="line" smooth="yes"/>
      <point x="237" y="-271"/>
      <point x="270" y="-294"/>
      <point x="326" y="-294" type="curve" smooth="yes"/>
      <point x="382" y="-294"/>
      <point x="421" y="-279"/>
      <point x="441" y="-246" type="curve" smooth="yes"/>
      <point x="766" y="291" type="line" smooth="yes"/>
      <point x="788" y="327"/>
      <point x="776" y="354"/>
      <point x="743" y="354" type="curve" smooth="yes"/>
    </contour>
  </outline>
</glyph>
<glyph name="hyphen" format="1">
  <advance width="1228"/>
  <unicode hex="002D"/>
  <outline>
    <contour>
      <point x="285" y="695" type="line" smooth="yes"/>
      <point x="240" y="695"/>
      <point x="219" y="677"/>
      <point x="202" y="582" type="curve" smooth="yes"/>
      <point x="185" y="487"/>
      <point x="200" y="470"/>
      <point x="245" y="470" type="curve" smooth="yes"/>
      <point x="1007" y="470" type="line" smooth="yes"/>
      <point x="1052" y="470"/>
      <point x="1073" y="487"/>
      <point x="1090" y="582" type="curve" smooth="yes"/>
      <point x="1107" y="677"/>
      <point x="1092" y="695"/>
      <point x="1047" y="695" type="curve" smooth="yes"/>
    </contour>
  </outline>
</glyph>
<glyph name="period" format="1">
  <advance width="1228"/>
  <unicode hex="002E"/>
  <outline>
    <contour>
      <point x="485" y="370"/>
      <point x="441" y="352"/>
      <point x="433" y="307" type="curve" smooth="yes"/>
      <point x="388" y="53" type="line" smooth="yes"/>
      <point x="380" y="8"/>
      <point x="434" y="-10"/>
      <point x="550" y="-10" type="curve" smooth="yes"/>
      <point x="666" y="-10"/>
      <point x="710" y="8"/>
      <point x="718" y="53" type="curve" smooth="yes"/>
      <point x="763" y="307" type="line" smooth="yes"/>
      <point x="771" y="352"/>
      <point x="717" y="370"/>
      <point x="601" y="370" type="curve" smooth="yes"/>
    </contour>
  </outline>
</glyph>
<glyph name="slash" format="1">
  <advance width="1228"/>
  <unicode hex="002F"/>
  <outline>
    <contour>
      <point x="1027" y="1399"/>
      <point x="997" y="1388"/>
      <point x="984" y="1365" type="curve" smooth="yes"/>
      <point x="57" y="-243" type="line" smooth="yes"/>
      <point x="17" y="-312"/>
      <point x="117" y="-360"/>
      <point x="200" y="-360" type="curve" smooth="yes"/>
      <point x="244" y="-360"/>
      <point x="273" y="-350"/>
      <point x="286" y="-327" type="curve" smooth="yes"/>
      <point x="1213" y="1281" type="line" smooth="yes"/>
      <point x="1254" y="1352"/>
      <point x="1155" y="1399"/>
      <point x="1072" y="1399" type="curve" smooth="yes"/>
    </contour>
  </outline>
</glyph>
<glyph name="zero" format="1">
  <advance width="1228"/>
  <unicode hex="0030"/>
  <outline>
    <contour>
      <point x="330" y="1209"/>
      <point x="155" y="781"/>
      <point x="155" y="447" type="curve" smooth="yes"/>
      <point x="155" y="169"/>
      <point x="300" y="-22"/>
      <point x="555" y="-22" type="curve" smooth="yes"/>
      <point x="967" y="-22"/>
      <point x="1142" y="406"/>
      <point x="1142" y="740" type="curve" smooth="yes"/>
      <point x="1142" y="1018"/>
      <point x="997" y="1209"/>
      <point x="742" y="1209" type="curve" smooth="yes"/>
    </contour>
    <contour>
      <point x="822" y="982"/>
      <point x="878" y="903"/>
      <point x="878" y="748" type="curve" smooth="yes"/>
      <point x="878" y="530"/>
      <point x="791" y="205"/>
      <point x="580" y="205" type="curve" smooth="yes"/>
      <point x="475" y="205"/>
      <point x="419" y="284"/>
      <point x="419" y="439" type="curve" smooth="yes"/>
      <point x="419" y="657"/>
      <point x="506" y="982"/>
      <point x="717" y="982" type="curve" smooth="yes"/>
    </contour>
  </outline>
</glyph>
<glyph name="one" format="1">
  <advance width="1228"/>
  <unicode hex="0031"/>
  <outline>
    <contour>
      <point x="308" y="950" type="line" smooth="yes"/>
      <point x="263" y="927"/>
      <point x="253" y="891"/>
      <point x="284" y="818" type="curve" smooth="yes"/>
      <point x="316" y="743"/>
      <point x="348" y="725"/>
      <point x="392" y="748" type="curve" smooth="yes"/>
      <point x="662" y="888" type="line"/>
      <point x="610" y="913" type="line"/>
      <point x="478" y="165" type="line"/>
      <point x="728" y="165" type="line"/>
      <point x="901" y="1148" type="line" smooth="yes"/>
      <point x="913" y="1214"/>
      <point x="848" y="1227"/>
      <point x="788" y="1196" type="curve" smooth="yes"/>
    </contour>
    <contour>
      <point x="259" y="205" type="line" smooth="yes"/>
      <point x="214" y="205"/>
      <point x="192" y="187"/>
      <point x="177" y="102" type="curve" smooth="yes"/>
      <point x="162" y="17"/>
      <point x="178" y="0"/>
      <point x="223" y="0" type="curve" smooth="yes"/>
      <point x="955" y="0" type="line" smooth="yes"/>
      <point x="1000" y="0"/>
      <point x="1020" y="17"/>
      <point x="1035" y="102" type="curve" smooth="yes"/>
      <point x="1050" y="187"/>
      <point x="1036" y="205"/>
      <point x="991" y="205" type="curve" smooth="yes"/>
    </contour>
  </outline>
</glyph>
<glyph name="three" format="1">
  <advance width="1228"/>
  <unicode hex="0033"/>
  <outline>
    <contour>
      <point x="610" y="1209"/>
      <point x="500" y="1193"/>
      <point x="390" y="1151" type="curve" smooth="yes"/>
      <point x="354" y="1138"/>
      <point x="335" y="1117"/>
      <point x="329" y="1087" type="curve" smooth="yes"/>
      <point x="294" y="890" type="line" smooth="yes"/>
      <point x="286" y="845"/>
      <point x="320" y="827"/>
      <point x="405" y="827" type="curve" smooth="yes"/>
      <point x="490" y="827"/>
      <point x="516" y="845"/>
      <point x="524" y="890" type="curve" smooth="yes"/>
      <point x="538" y="969" type="line"/>
      <point x="585" y="982"/>
      <point x="636" y="992"/>
      <point x="695" y="992" type="curve" smooth="yes"/>
      <point x="791" y="992"/>
      <point x="840" y="957"/>
      <point x="840" y="875" type="curve" smooth="yes"/>
      <point x="840" y="793"/>
      <point x="789" y="718"/>
      <point x="637" y="718" type="curve" smooth="yes"/>
      <point x="561" y="718" type="line" smooth="yes"/>
      <point x="516" y="718"/>
      <point x="494" y="695"/>
      <point x="479" y="610" type="curve" smooth="yes"/>
      <point x="464" y="525"/>
      <point x="478" y="503"/>
      <point x="523" y="503" type="curve" smooth="yes"/>
      <point x="626" y="503" type="line" smooth="yes"/>
      <point x="723" y="503"/>
      <point x="774" y="465"/>
      <point x="774" y="391" type="curve" smooth="yes"/>
      <point x="774" y="302"/>
      <point x="718" y="205"/>
      <point x="540" y="205" type="curve" smooth="yes"/>
      <point x="442" y="205"/>
      <point x="351" y="230"/>
      <point x="273" y="270" type="curve" smooth="yes"/>
      <point x="245" y="285"/>
      <point x="207" y="269"/>
      <point x="173" y="191" type="curve" smooth="yes"/>
      <point x="139" y="114"/>
      <point x="146" y="74"/>
      <point x="180" y="55" type="curve" smooth="yes"/>
      <point x="271" y="5"/>
      <point x="387" y="-22"/>
      <point x="534" y="-22" type="curve" smooth="yes"/>
      <point x="909" y="-22"/>
      <point x="1039" y="196"/>
      <point x="1039" y="392" type="curve" smooth="yes"/>
      <point x="1039" y="493"/>
      <point x="990" y="570"/>
      <point x="908" y="612" type="curve"/>
      <point x="1036" y="673"/>
      <point x="1097" y="784"/>
      <point x="1097" y="912" type="curve" smooth="yes"/>
      <point x="1097" y="1100"/>
      <point x="960" y="1209"/>
      <point x="723" y="1209" type="curve" smooth="yes"/>
    </contour>
  </outline>
</glyph>
<glyph name="seven" format="1">
  <advance width="1228"/>
  <unicode hex="0037"/>
  <outline>
    <contour>
      <point x="392" y="1187" type="line" smooth="yes"/>
      <point x="346" y="1187"/>
      <point x="323" y="1168"/>
      <point x="315" y="1122" type="curve" smooth="yes"/>
      <point x="255" y="780" type="line" smooth="yes"/>
      <point x="247" y="735"/>
      <point x="280" y="717"/>
      <point x="365" y="717" type="curve" smooth="yes"/>
      <point x="450" y="717"/>
      <point x="477" y="735"/>
      <point x="485" y="780" type="curve" smooth="yes"/>
      <point x="519" y="972" type="line"/>
      <point x="870" y="972" type="line"/>
      <point x="354" y="97" type="line" smooth="yes"/>
      <point x="313" y="27"/>
      <point x="408" y="-22"/>
      <point x="493" y="-22" type="curve" smooth="yes"/>
      <point x="544" y="-22"/>
      <point x="584" y="-8"/>
      <point x="603" y="24" type="curve" smooth="yes"/>
      <point x="1179" y="1012" type="line" smooth="yes"/>
      <point x="1188" y="1027"/>
      <point x="1195" y="1050"/>
      <point x="1201" y="1084" type="curve" smooth="yes"/>
      <point x="1216" y="1169"/>
      <point x="1201" y="1187"/>
      <point x="1156" y="1187" type="curve" smooth="yes"/>
    </contour>
  </outline>
</glyph>
<glyph name="eight" format="1">
  <advance width="1228"/>
  <unicode hex="0038"/>
  <outline>
    <contour>
      <point x="449" y="1209"/>
      <point x="291" y="1017"/>
      <point x="291" y="832" type="curve" smooth="yes"/>
      <point x="291" y="735"/>
      <point x="338" y="667"/>
      <point x="415" y="625" type="curve"/>
      <point x="248" y="576"/>
      <point x="158" y="454"/>
      <point x="158" y="286" type="curve" smooth="yes"/>
      <point x="158" y="100"/>
      <point x="304" y="-22"/>
      <point x="540" y="-22" type="curve" smooth="yes"/>
      <point x="912" y="-22"/>
      <point x="1048" y="190"/>
      <point x="1048" y="379" type="curve" smooth="yes"/>
      <point x="1048" y="492"/>
      <point x="988" y="569"/>
      <point x="893" y="613" type="curve"/>
      <point x="1015" y="657"/>
      <point x="1102" y="757"/>
      <point x="1102" y="910" type="curve" smooth="yes"/>
      <point x="1102" y="1071"/>
      <point x="982" y="1209"/>
      <point x="757" y="1209" type="curve" smooth="yes"/>
    </contour>
    <contour>
      <point x="737" y="518"/>
      <point x="787" y="468"/>
      <point x="787" y="391" type="curve" smooth="yes"/>
      <point x="787" y="297"/>
      <point x="725" y="196"/>
      <point x="578" y="196" type="curve" smooth="yes"/>
      <point x="476" y="196"/>
      <point x="425" y="245"/>
      <point x="425" y="321" type="curve" smooth="yes"/>
      <point x="425" y="416"/>
      <point x="489" y="518"/>
      <point x="635" y="518" type="curve" smooth="yes"/>
    </contour>
    <contour>
      <point x="802" y="991"/>
      <point x="851" y="947"/>
      <point x="851" y="878" type="curve" smooth="yes"/>
      <point x="851" y="800"/>
      <point x="794" y="712"/>
      <point x="669" y="712" type="curve" smooth="yes"/>
      <point x="583" y="712"/>
      <point x="536" y="755"/>
      <point x="536" y="822" type="curve" smooth="yes"/>
      <point x="536" y="910"/>
      <point x="602" y="991"/>
      <point x="718" y="991" type="curve" smooth="yes"/>
    </contour>
  </outline>
</glyph>
<glyph name="question" format="1">
  <advance width="1228"/>
  <unicode hex="003F"/>
  <outline>
    <contour>
      <point x="616" y="1269"/>
      <point x="504" y="1240"/>
      <point x="389" y="1191" type="curve" smooth="yes"/>
      <point x="360" y="1179"/>
      <point x="342" y="1157"/>
      <point x="337" y="1130" type="curve" smooth="yes"/>
      <point x="302" y="930" type="line" smooth="yes"/>
      <point x="294" y="885"/>
      <point x="328" y="867"/>
      <point x="413" y="867" type="curve" smooth="yes"/>
      <point x="498" y="867"/>
      <point x="525" y="885"/>
      <point x="532" y="930" type="curve" smooth="yes"/>
      <point x="547" y="1022" type="line"/>
      <point x="597" y="1041"/>
      <point x="651" y="1052"/>
      <point x="705" y="1052" type="curve" smooth="yes"/>
      <point x="798" y="1052"/>
      <point x="843" y="1000"/>
      <point x="843" y="926" type="curve" smooth="yes"/>
      <point x="843" y="839"/>
      <point x="782" y="786"/>
      <point x="670" y="766" type="curve" smooth="yes"/>
      <point x="557" y="746" type="line" smooth="yes"/>
      <point x="531" y="741"/>
      <point x="520" y="721"/>
      <point x="518" y="695" type="curve" smooth="yes"/>
      <point x="501" y="487" type="line" smooth="yes"/>
      <point x="498" y="456"/>
      <point x="516" y="439"/>
      <point x="593" y="439" type="curve" smooth="yes"/>
      <point x="670" y="439"/>
      <point x="695" y="456"/>
      <point x="703" y="487" type="curve" smooth="yes"/>
      <point x="727" y="578" type="line"/>
      <point x="999" y="637"/>
      <point x="1099" y="776"/>
      <point x="1099" y="957" type="curve" smooth="yes"/>
      <point x="1099" y="1144"/>
      <point x="968" y="1269"/>
      <point x="729" y="1269" type="curve" smooth="yes"/>
    </contour>
    <contour>
      <point x="467" y="290"/>
      <point x="427" y="272"/>
      <point x="419" y="227" type="curve" smooth="yes"/>
      <point x="388" y="53" type="line" smooth="yes"/>
      <point x="380" y="8"/>
      <point x="426" y="-10"/>
      <point x="528" y="-10" type="curve" smooth="yes"/>
      <point x="630" y="-10"/>
      <point x="670" y="8"/>
      <point x="678" y="53" type="curve" smooth="yes"/>
      <point x="709" y="227" type="line" smooth="yes"/>
      <point x="717" y="272"/>
      <point x="671" y="290"/>
      <point x="569" y="290" type="curve" smooth="yes"/>
    </contour>
  </outline>
</glyph>
<glyph name="B" format="1">
  <advance width="1228"/>
  <unicode hex="0042"/>
  <outline>
    <contour>
      <point x="272" y="1187" type="line" smooth="yes"/>
      <point x="227" y="1187"/>
      <point x="206" y="1169"/>
      <point x="191" y="1084" type="curve" smooth="yes"/>
      <point x="176" y="999"/>
      <point x="191" y="982"/>
      <point x="236" y="982" type="curve" smooth="yes"/>
      <point x="343" y="982" type="line"/>
      <point x="206" y="205" type="line"/>
      <point x="99" y="205" type="line" smooth="yes"/>
      <point x="54" y="205"/>
      <point x="32" y="187"/>
      <point x="17" y="102" type="curve" smooth="yes"/>
      <point x="2" y="17"/>
      <point x="18" y="0"/>
      <point x="63" y="0" type="curve" smooth="yes"/>
      <point x="640" y="0" type="line" smooth="yes"/>
      <point x="980" y="0"/>
      <point x="1132" y="169"/>
      <point x="1132" y="384" type="curve" smooth="yes"/>
      <point x="1132" y="511"/>
      <point x="1062" y="591"/>
      <point x="950" y="625" type="curve"/>
      <point x="1077" y="679"/>
      <point x="1149" y="777"/>
      <point x="1149" y="903" type="curve" smooth="yes"/>
      <point x="1149" y="1074"/>
      <point x="1028" y="1187"/>
      <point x="773" y="1187" type="curve" smooth="yes"/>
    </contour>
    <contour>
      <point x="815" y="499"/>
      <point x="871" y="463"/>
      <point x="871" y="376" type="curve" smooth="yes"/>
      <point x="871" y="291"/>
      <point x="815" y="215"/>
      <point x="650" y="215" type="curve" smooth="yes"/>
      <point x="458" y="215" type="line"/>
      <point x="507" y="499" type="line"/>
      <point x="699" y="499" type="line" smooth="yes"/>
    </contour>
    <contour>
      <point x="841" y="972"/>
      <point x="891" y="943"/>
      <point x="891" y="865" type="curve" smooth="yes"/>
      <point x="891" y="780"/>
      <point x="835" y="714"/>
      <point x="688" y="714" type="curve" smooth="yes"/>
      <point x="546" y="714" type="line"/>
      <point x="591" y="972" type="line"/>
      <point x="733" y="972" type="line" smooth="yes"/>
    </contour>
  </outline>
</glyph>
<glyph name="G" format="1">
  <advance width="1228"/>
  <unicode hex="0047"/>
  <outline>
    <contour>
      <point x="1034" y="1209"/>
      <point x="994" y="1191"/>
      <point x="986" y="1146" type="curve" smooth="yes"/>
      <point x="975" y="1086" type="line"/>
      <point x="936" y="1159"/>
      <point x="851" y="1209"/>
      <point x="727" y="1209" type="curve" smooth="yes"/>
      <point x="312" y="1209"/>
      <point x="98" y="819"/>
      <point x="98" y="471" type="curve" smooth="yes"/>
      <point x="98" y="171"/>
      <point x="283" y="-22"/>
      <point x="570" y="-22" type="curve" smooth="yes"/>
      <point x="725" y="-22"/>
      <point x="869" y="5"/>
      <point x="999" y="64" type="curve" smooth="yes"/>
      <point x="1024" y="75"/>
      <point x="1041" y="101"/>
      <point x="1047" y="133" type="curve" smooth="yes"/>
      <point x="1094" y="402" type="line"/>
      <point x="1125" y="402" type="line" smooth="yes"/>
      <point x="1170" y="402"/>
      <point x="1191" y="419"/>
      <point x="1206" y="504" type="curve" smooth="yes"/>
      <point x="1221" y="589"/>
      <point x="1207" y="607"/>
      <point x="1162" y="607" type="curve" smooth="yes"/>
      <point x="688" y="607" type="line" smooth="yes"/>
      <point x="643" y="607"/>
      <point x="621" y="589"/>
      <point x="606" y="504" type="curve" smooth="yes"/>
      <point x="591" y="419"/>
      <point x="606" y="402"/>
      <point x="651" y="402" type="curve" smooth="yes"/>
      <point x="844" y="402" type="line"/>
      <point x="815" y="235" type="line"/>
      <point x="745" y="215"/>
      <point x="673" y="205"/>
      <point x="600" y="205" type="curve" smooth="yes"/>
      <point x="446" y="205"/>
      <point x="364" y="302"/>
      <point x="364" y="475" type="curve" smooth="yes"/>
      <point x="364" y="662"/>
      <point x="446" y="982"/>
      <point x="727" y="982" type="curve" smooth="yes"/>
      <point x="871" y="982"/>
      <point x="925" y="914"/>
      <point x="905" y="802" type="curve" smooth="yes"/>
      <point x="897" y="757"/>
      <point x="917" y="739"/>
      <point x="1012" y="739" type="curve" smooth="yes"/>
      <point x="1107" y="739"/>
      <point x="1147" y="757"/>
      <point x="1155" y="802" type="curve" smooth="yes"/>
      <point x="1216" y="1146" type="line" smooth="yes"/>
      <point x="1224" y="1191"/>
      <point x="1204" y="1209"/>
      <point x="1119" y="1209" type="curve" smooth="yes"/>
    </contour>
  </outline>
</glyph>
<glyph name="K" format="1">
  <advance width="1228"/>
  <unicode hex="004B"/>
  <outline>
    <contour>
      <point x="880" y="1187" type="line" smooth="yes"/>
      <point x="835" y="1187"/>
      <point x="814" y="1169"/>
      <point x="799" y="1084" type="curve" smooth="yes"/>
      <point x="784" y="999"/>
      <point x="799" y="982"/>
      <point x="844" y="982" type="curve" smooth="yes"/>
      <point x="887" y="982" type="line"/>
      <point x="518" y="672" type="line"/>
      <point x="573" y="982" type="line"/>
      <point x="620" y="982" type="line" smooth="yes"/>
      <point x="665" y="982"/>
      <point x="686" y="999"/>
      <point x="701" y="1084" type="curve" smooth="yes"/>
      <point x="716" y="1169"/>
      <point x="701" y="1187"/>
      <point x="656" y="1187" type="curve" smooth="yes"/>
      <point x="252" y="1187" type="line" smooth="yes"/>
      <point x="207" y="1187"/>
      <point x="186" y="1169"/>
      <point x="171" y="1084" type="curve" smooth="yes"/>
      <point x="156" y="999"/>
      <point x="171" y="982"/>
      <point x="216" y="982" type="curve" smooth="yes"/>
      <point x="323" y="982" type="line"/>
      <point x="186" y="205" type="line"/>
      <point x="79" y="205" type="line" smooth="yes"/>
      <point x="34" y="205"/>
      <point x="12" y="187"/>
      <point x="-3" y="102" type="curve" smooth="yes"/>
      <point x="-18" y="17"/>
      <point x="-2" y="0"/>
      <point x="43" y="0" type="curve" smooth="yes"/>
      <point x="515" y="0" type="line" smooth="yes"/>
      <point x="560" y="0"/>
      <point x="580" y="17"/>
      <point x="595" y="102" type="curve" smooth="yes"/>
      <point x="610" y="187"/>
      <point x="596" y="205"/>
      <point x="551" y="205" type="curve" smooth="yes"/>
      <point x="436" y="205" type="line"/>
      <point x="465" y="371" type="line"/>
      <point x="536" y="431" type="line" smooth="yes"/>
      <point x="564" y="455"/>
      <point x="593" y="465"/>
      <point x="621" y="465" type="curve" smooth="yes"/>
      <point x="667" y="465"/>
      <point x="703" y="433"/>
      <point x="728" y="382" type="curve" smooth="yes"/>
      <point x="758" y="318"/>
      <point x="776" y="221"/>
      <point x="805" y="142" type="curve" smooth="yes"/>
      <point x="832" y="65"/>
      <point x="877" y="0"/>
      <point x="966" y="0" type="curve" smooth="yes"/>
      <point x="1095" y="0" type="line" smooth="yes"/>
      <point x="1140" y="0"/>
      <point x="1160" y="17"/>
      <point x="1175" y="102" type="curve" smooth="yes"/>
      <point x="1190" y="187"/>
      <point x="1176" y="205"/>
      <point x="1131" y="205" type="curve" smooth="yes"/>
      <point x="1116" y="205" type="line" smooth="yes"/>
      <point x="1073" y="205"/>
      <point x="1047" y="236"/>
      <point x="1028" y="282" type="curve" smooth="yes"/>
      <point x="998" y="354"/>
      <point x="981" y="453"/>
      <point x="938" y="535" type="curve" smooth="yes"/>
      <point x="905" y="598"/>
      <point x="865" y="637"/>
      <point x="790" y="641" type="curve"/>
      <point x="1200" y="982" type="line"/>
      <point x="1233" y="982" type="line" smooth="yes"/>
      <point x="1278" y="982"/>
      <point x="1299" y="999"/>
      <point x="1314" y="1084" type="curve" smooth="yes"/>
      <point x="1329" y="1169"/>
      <point x="1314" y="1187"/>
      <point x="1269" y="1187" type="curve" smooth="yes"/>
    </contour>
  </outline>
</glyph>
<glyph name="Q" format="1">
  <advance width="1228"/>
  <unicode hex="0051"/>
  <outline>
    <contour>
      <point x="553" y="1209"/>
      <point x="389" y="1139"/>
      <point x="273" y="1010" type="curve" smooth="yes"/>
      <point x="154" y="878"/>
      <point x="97" y="693"/>
      <point x="97" y="529" type="curve" smooth="yes"/>
      <point x="97" y="325"/>
      <point x="190" y="165"/>
      <point x="347" y="98" type="curve"/>
      <point x="114" y="-102" type="line" smooth="yes"/>
      <point x="82" y="-130"/>
      <point x="86" y="-180"/>
      <point x="106" y="-221" type="curve" smooth="yes"/>
      <point x="127" y="-264"/>
      <point x="164" y="-296"/>
      <point x="196" y="-284" type="curve" smooth="yes"/>
      <point x="287" y="-249"/>
      <point x="364" y="-237"/>
      <point x="433" y="-237" type="curve" smooth="yes"/>
      <point x="567" y="-237"/>
      <point x="669" y="-281"/>
      <point x="781" y="-281" type="curve" smooth="yes"/>
      <point x="853" y="-281"/>
      <point x="928" y="-263"/>
      <point x="1019" y="-204" type="curve" smooth="yes"/>
      <point x="1068" y="-172"/>
      <point x="1070" y="-112"/>
      <point x="1049" y="-66" type="curve" smooth="yes"/>
      <point x="1028" y="-19"/>
      <point x="985" y="14"/>
      <point x="944" y="-6" type="curve" smooth="yes"/>
      <point x="881" y="-37"/>
      <point x="831" y="-46"/>
      <point x="786" y="-46" type="curve" smooth="yes"/>
      <point x="708" y="-46"/>
      <point x="645" y="-17"/>
      <point x="555" y="-17" type="curve" smooth="yes"/>
      <point x="510" y="-17"/>
      <point x="459" y="-24"/>
      <point x="396" y="-46" type="curve"/>
      <point x="519" y="60" type="line"/>
      <point x="529" y="59"/>
      <point x="547" y="58"/>
      <point x="564" y="58" type="curve" smooth="yes"/>
      <point x="758" y="58"/>
      <point x="922" y="128"/>
      <point x="1038" y="257" type="curve" smooth="yes"/>
      <point x="1157" y="389"/>
      <point x="1214" y="574"/>
      <point x="1214" y="738" type="curve" smooth="yes"/>
      <point x="1214" y="1023"/>
      <point x="1034" y="1209"/>
      <point x="747" y="1209" type="curve" smooth="yes"/>
    </contour>
    <contour>
      <point x="872" y="982"/>
      <point x="949" y="892"/>
      <point x="949" y="738" type="curve" smooth="yes"/>
      <point x="949" y="622"/>
      <point x="911" y="482"/>
      <point x="838" y="395" type="curve" smooth="yes"/>
      <point x="778" y="324"/>
      <point x="696" y="285"/>
      <point x="594" y="285" type="curve" smooth="yes"/>
      <point x="439" y="285"/>
      <point x="362" y="374"/>
      <point x="362" y="529" type="curve" smooth="yes"/>
      <point x="362" y="645"/>
      <point x="400" y="785"/>
      <point x="473" y="872" type="curve" smooth="yes"/>
      <point x="533" y="943"/>
      <point x="615" y="982"/>
      <point x="717" y="982" type="curve" smooth="yes"/>
    </contour>
  </outline>
</glyph>
<glyph name="U" format="1">
  <advance width="1228"/>
  <unicode hex="0055"/>
  <outline>
    <contour>
      <point x="880" y="1187" type="line" smooth="yes"/>
      <point x="835" y="1187"/>
      <point x="814" y="1169"/>
      <point x="799" y="1084" type="curve" smooth="yes"/>
      <point x="784" y="999"/>
      <point x="799" y="982"/>
      <point x="844" y="982" type="curve" smooth="yes"/>
      <point x="921" y="982" type="line"/>
      <point x="824" y="433" type="line" smooth="yes"/>
      <point x="796" y="273"/>
      <point x="699" y="205"/>
      <point x="580" y="205" type="curve" smooth="yes"/>
      <point x="478" y="205"/>
      <point x="410" y="255"/>
      <point x="410" y="370" type="curve" smooth="yes"/>
      <point x="410" y="389"/>
      <point x="412" y="410"/>
      <point x="416" y="433" type="curve" smooth="yes"/>
      <point x="513" y="982" type="line"/>
      <point x="590" y="982" type="line" smooth="yes"/>
      <point x="635" y="982"/>
      <point x="656" y="999"/>
      <point x="671" y="1084" type="curve" smooth="yes"/>
      <point x="686" y="1169"/>
      <point x="671" y="1187"/>
      <point x="626" y="1187" type="curve" smooth="yes"/>
      <point x="252" y="1187" type="line" smooth="yes"/>
      <point x="207" y="1187"/>
      <point x="186" y="1169"/>
      <point x="171" y="1084" type="curve" smooth="yes"/>
      <point x="156" y="999"/>
      <point x="171" y="982"/>
      <point x="216" y="982" type="curve" smooth="yes"/>
      <point x="263" y="982" type="line"/>
      <point x="166" y="433" type="line" smooth="yes"/>
      <point x="160" y="400"/>
      <point x="157" y="368"/>
      <point x="157" y="338" type="curve" smooth="yes"/>
      <point x="157" y="114"/>
      <point x="313" y="-22"/>
      <point x="560" y="-22" type="curve" smooth="yes"/>
      <point x="840" y="-22"/>
      <point x="1018" y="123"/>
      <point x="1068" y="403" type="curve" smooth="yes"/>
      <point x="1171" y="982" type="line"/>
      <point x="1218" y="982" type="line" smooth="yes"/>
      <point x="1263" y="982"/>
      <point x="1284" y="999"/>
      <point x="1299" y="1084" type="curve" smooth="yes"/>
      <point x="1314" y="1169"/>
      <point x="1299" y="1187"/>
      <point x="1254" y="1187" type="curve" smooth="yes"/>
    </contour>
  </outline>
</glyph>
<glyph name="X" format="1">
  <advance width="1228"/>
  <unicode hex="0058"/>
  <outline>
    <contour>
      <point x="946" y="1083" type="line"/>
      <point x="598" y="684" type="line"/>
      <point x="515" y="650" type="line"/>
      <point x="34" y="107" type="line"/>
      <point x="329" y="107" type="line"/>
      <point x="711" y="543" type="line"/>
      <point x="797" y="579" type="line"/>
      <point x="1241" y="1083" type="line"/>
    </contour>
    <contour>
      <point x="59" y="205" type="line" smooth="yes"/>
      <point x="14" y="205"/>
      <point x="-8" y="187"/>
      <point x="-23" y="102" type="curve" smooth="yes"/>
      <point x="-38" y="17"/>
      <point x="-22" y="0"/>
      <point x="23" y="0" type="curve" smooth="yes"/>
      <point x="415" y="0" type="line" smooth="yes"/>
      <point x="460" y="0"/>
      <point x="480" y="17"/>
      <point x="495" y="102" type="curve" smooth="yes"/>
      <point x="510" y="187"/>
      <point x="496" y="205"/>
      <point x="451" y="205" type="curve" smooth="yes"/>
    </contour>
    <contour>
      <point x="705" y="205" type="line" smooth="yes"/>
      <point x="660" y="205"/>
      <point x="638" y="187"/>
      <point x="623" y="102" type="curve" smooth="yes"/>
      <point x="608" y="17"/>
      <point x="624" y="0"/>
      <point x="669" y="0" type="curve" smooth="yes"/>
      <point x="1065" y="0" type="line" smooth="yes"/>
      <point x="1110" y="0"/>
      <point x="1130" y="17"/>
      <point x="1145" y="102" type="curve" smooth="yes"/>
      <point x="1160" y="187"/>
      <point x="1146" y="205"/>
      <point x="1101" y="205" type="curve" smooth="yes"/>
    </contour>
    <contour>
      <point x="243" y="1083" type="line"/>
      <point x="519" y="577" type="line"/>
      <point x="568" y="545" type="line"/>
      <point x="801" y="107" type="line"/>
      <point x="1084" y="107" type="line"/>
      <point x="792" y="636" type="line"/>
      <point x="739" y="664" type="line"/>
      <point x="520" y="1083" type="line"/>
    </contour>
    <contour>
      <point x="262" y="1187" type="line" smooth="yes"/>
      <point x="217" y="1187"/>
      <point x="196" y="1169"/>
      <point x="181" y="1084" type="curve" smooth="yes"/>
      <point x="166" y="999"/>
      <point x="181" y="982"/>
      <point x="226" y="982" type="curve" smooth="yes"/>
      <point x="614" y="982" type="line" smooth="yes"/>
      <point x="659" y="982"/>
      <point x="680" y="999"/>
      <point x="695" y="1084" type="curve" smooth="yes"/>
      <point x="710" y="1169"/>
      <point x="695" y="1187"/>
      <point x="650" y="1187" type="curve" smooth="yes"/>
    </contour>
    <contour>
      <point x="874" y="1187" type="line" smooth="yes"/>
      <point x="829" y="1187"/>
      <point x="808" y="1169"/>
      <point x="793" y="1084" type="curve" smooth="yes"/>
      <point x="778" y="999"/>
      <point x="793" y="982"/>
      <point x="838" y="982" type="curve" smooth="yes"/>
      <point x="1208" y="982" type="line" smooth="yes"/>
      <point x="1253" y="982"/>
      <point x="1274" y="999"/>
      <point x="1289" y="1084" type="curve" smooth="yes"/>
      <point x="1304" y="1169"/>
      <point x="1289" y="1187"/>
      <point x="1244" y="1187" type="curve" smooth="yes"/>
    </contour>
  </outline>
</glyph>
<glyph name="Z" format="1">
  <advance width="1228"/>
  <unicode hex="005A"/>
  <outline>
    <contour>
      <point x="362" y="1187" type="line" smooth="yes"/>
      <point x="316" y="1187"/>
      <point x="293" y="1168"/>
      <point x="285" y="1122" type="curve" smooth="yes"/>
      <point x="223" y="770" type="line" smooth="yes"/>
      <point x="215" y="725"/>
      <point x="235" y="707"/>
      <point x="320" y="707" type="curve" smooth="yes"/>
      <point x="405" y="707"/>
      <point x="445" y="725"/>
      <point x="453" y="770" type="curve" smooth="yes"/>
      <point x="489" y="972" type="line"/>
      <point x="813" y="972" type="line"/>
      <point x="132" y="195" type="line" smooth="yes"/>
      <point x="115" y="176"/>
      <point x="103" y="147"/>
      <point x="95" y="102" type="curve" smooth="yes"/>
      <point x="80" y="17"/>
      <point x="96" y="0"/>
      <point x="141" y="0" type="curve" smooth="yes"/>
      <point x="955" y="0" type="line" smooth="yes"/>
      <point x="1001" y="0"/>
      <point x="1023" y="19"/>
      <point x="1031" y="65" type="curve" smooth="yes"/>
      <point x="1097" y="437" type="line" smooth="yes"/>
      <point x="1104" y="482"/>
      <point x="1085" y="500"/>
      <point x="1000" y="500" type="curve" smooth="yes"/>
      <point x="915" y="500"/>
      <point x="874" y="482"/>
      <point x="867" y="437" type="curve" smooth="yes"/>
      <point x="827" y="215" type="line"/>
      <point x="470" y="215" type="line"/>
      <point x="1151" y="992" type="line" smooth="yes"/>
      <point x="1169" y="1013"/>
      <point x="1183" y="1041"/>
      <point x="1191" y="1084" type="curve" smooth="yes"/>
      <point x="1206" y="1169"/>
      <point x="1191" y="1187"/>
      <point x="1146" y="1187" type="curve" smooth="yes"/>
    </contour>
  </outline>
</glyph>
<glyph name="bracketleft" format="1">
  <advance width="1228"/>
  <unicode hex="005B"/>
  <outline>
    <contour>
      <point x="525" y="1372" type="line" smooth="yes"/>
      <point x="480" y="1372"/>
      <point x="459" y="1354"/>
      <point x="451" y="1309" type="curve" smooth="yes"/>
      <point x="172" y="-270" type="line" smooth="yes"/>
      <point x="164" y="-315"/>
      <point x="179" y="-333"/>
      <point x="224" y="-333" type="curve" smooth="yes"/>
      <point x="734" y="-333" type="line" smooth="yes"/>
      <point x="779" y="-333"/>
      <point x="802" y="-313"/>
      <point x="817" y="-220" type="curve" smooth="yes"/>
      <point x="832" y="-127"/>
      <point x="819" y="-108"/>
      <point x="774" y="-108" type="curve" smooth="yes"/>
      <point x="451" y="-108" type="line"/>
      <point x="672" y="1147" type="line"/>
      <point x="995" y="1147" type="line" smooth="yes"/>
      <point x="1040" y="1147"/>
      <point x="1063" y="1174"/>
      <point x="1078" y="1259" type="curve" smooth="yes"/>
      <point x="1093" y="1352"/>
      <point x="1080" y="1372"/>
      <point x="1035" y="1372" type="curve" smooth="yes"/>
    </contour>
  </outline>
</glyph>
<glyph name="f" format="1">
  <advance width="1228"/>
  <unicode hex="0066"/>
  <outline>
    <contour>
      <point x="720" y="1317"/>
      <point x="592" y="1186"/>
      <point x="548" y="937" type="curve" smooth="yes"/>
      <point x="535" y="864" type="line"/>
      <point x="352" y="864" type="line" smooth="yes"/>
      <point x="307" y="864"/>
      <point x="285" y="841"/>
      <point x="270" y="756" type="curve" smooth="yes"/>
      <point x="255" y="671"/>
      <point x="269" y="649"/>
      <point x="314" y="649" type="curve" smooth="yes"/>
      <point x="497" y="649" type="line"/>
      <point x="377" y="-32" type="line" smooth="yes"/>
      <point x="357" y="-142"/>
      <point x="307" y="-188"/>
      <point x="230" y="-188" type="curve" smooth="yes"/>
      <point x="164" y="-188"/>
      <point x="116" y="-170"/>
      <point x="49" y="-126" type="curve" smooth="yes"/>
      <point x="8" y="-99"/>
      <point x="-31" y="-120"/>
      <point x="-70" y="-187" type="curve" smooth="yes"/>
      <point x="-106" y="-249"/>
      <point x="-110" y="-288"/>
      <point x="-67" y="-319" type="curve" smooth="yes"/>
      <point x="35" y="-391"/>
      <point x="117" y="-415"/>
      <point x="232" y="-415" type="curve" smooth="yes"/>
      <point x="459" y="-415"/>
      <point x="582" y="-289"/>
      <point x="625" y="-45" type="curve" smooth="yes"/>
      <point x="747" y="649" type="line"/>
      <point x="1058" y="649" type="line" smooth="yes"/>
      <point x="1103" y="649"/>
      <point x="1125" y="671"/>
      <point x="1140" y="756" type="curve" smooth="yes"/>
      <point x="1155" y="841"/>
      <point x="1141" y="864"/>
      <point x="1096" y="864" type="curve" smooth="yes"/>
      <point x="785" y="864" type="line"/>
      <point x="795" y="924" type="line" smooth="yes"/>
      <point x="816" y="1039"/>
      <point x="872" y="1090"/>
      <point x="954" y="1090" type="curve" smooth="yes"/>
      <point x="1022" y="1090"/>
      <point x="1088" y="1077"/>
      <point x="1169" y="1051" type="curve" smooth="yes"/>
      <point x="1210" y="1038"/>
      <point x="1248" y="1046"/>
      <point x="1278" y="1127" type="curve" smooth="yes"/>
      <point x="1309" y="1210"/>
      <point x="1289" y="1243"/>
      <point x="1246" y="1260" type="curve" smooth="yes"/>
      <point x="1144" y="1301"/>
      <point x="1046" y="1317"/>
      <point x="952" y="1317" type="curve" smooth="yes"/>
    </contour>
  </outline>
</glyph>
<glyph name="g" format="1">
  <advance width="1228"/>
  <unicode hex="0067"/>
  <outline>
    <contour>
      <point x="297" y="946"/>
      <point x="130" y="652"/>
      <point x="130" y="395" type="curve" smooth="yes"/>
      <point x="130" y="174"/>
      <point x="264" y="8"/>
      <point x="494" y="8" type="curve" smooth="yes"/>
      <point x="593" y="8"/>
      <point x="689" y="52"/>
      <point x="767" y="123" type="curve"/>
      <point x="749" y="21" type="line" smooth="yes"/>
      <point x="726" y="-112"/>
      <point x="647" y="-183"/>
      <point x="479" y="-183" type="curve" smooth="yes"/>
      <point x="394" y="-183"/>
      <point x="284" y="-160"/>
      <point x="191" y="-126" type="curve" smooth="yes"/>
      <point x="151" y="-111"/>
      <point x="116" y="-125"/>
      <point x="83" y="-210" type="curve" smooth="yes"/>
      <point x="52" y="-293"/>
      <point x="63" y="-325"/>
      <point x="107" y="-341" type="curve" smooth="yes"/>
      <point x="236" y="-387"/>
      <point x="366" y="-410"/>
      <point x="469" y="-410" type="curve" smooth="yes"/>
      <point x="789" y="-410"/>
      <point x="951" y="-255"/>
      <point x="996" y="1" type="curve" smooth="yes"/>
      <point x="1149" y="871" type="line" smooth="yes"/>
      <point x="1157" y="916"/>
      <point x="1137" y="934"/>
      <point x="1062" y="934" type="curve" smooth="yes"/>
      <point x="987" y="934"/>
      <point x="947" y="916"/>
      <point x="939" y="871" type="curve" smooth="yes"/>
      <point x="925" y="791" type="line"/>
      <point x="866" y="892"/>
      <point x="767" y="946"/>
      <point x="639" y="946" type="curve" smooth="yes"/>
    </contour>
    <contour>
      <point x="758" y="719"/>
      <point x="841" y="658"/>
      <point x="841" y="534" type="curve" smooth="yes"/>
      <point x="841" y="390"/>
      <point x="748" y="235"/>
      <point x="564" y="235" type="curve" smooth="yes"/>
      <point x="460" y="235"/>
      <point x="397" y="297"/>
      <point x="397" y="412" type="curve" smooth="yes"/>
      <point x="397" y="551"/>
      <point x="476" y="719"/>
      <point x="649" y="719" type="curve" smooth="yes"/>
    </contour>
  </outline>
</glyph>
<glyph name="h" format="1">
  <advance width="1228"/>
  <unicode hex="0068"/>
  <outline>
    <contour>
      <point x="271" y="1312" type="line" smooth="yes"/>
      <point x="226" y="1312"/>
      <point x="205" y="1294"/>
      <point x="190" y="1209" type="curve" smooth="yes"/>
      <point x="175" y="1124"/>
      <point x="190" y="1107"/>
      <point x="235" y="1107" type="curve" smooth="yes"/>
      <point x="332" y="1107" type="line"/>
      <point x="148" y="63" type="line" smooth="yes"/>
      <point x="140" y="18"/>
      <point x="155" y="0"/>
      <point x="200" y="0" type="curve" smooth="yes"/>
      <point x="324" y="0" type="line" smooth="yes"/>
      <point x="369" y="0"/>
      <point x="390" y="18"/>
      <point x="398" y="63" type="curve" smooth="yes"/>
      <point x="445" y="338" type="line" smooth="yes"/>
      <point x="477" y="526"/>
      <point x="619" y="719"/>
      <point x="738" y="719" type="curve" smooth="yes"/>
      <point x="807" y="719"/>
      <point x="833" y="682"/>
      <point x="833" y="619" type="curve" smooth="yes"/>
      <point x="833" y="601"/>
      <point x="831" y="582"/>
      <point x="827" y="561" type="curve" smooth="yes"/>
      <point x="740" y="63" type="line" smooth="yes"/>
      <point x="732" y="18"/>
      <point x="747" y="0"/>
      <point x="792" y="0" type="curve" smooth="yes"/>
      <point x="1056" y="0" type="line" smooth="yes"/>
      <point x="1101" y="0"/>
      <point x="1121" y="17"/>
      <point x="1136" y="102" type="curve" smooth="yes"/>
      <point x="1151" y="187"/>
      <point x="1137" y="205"/>
      <point x="1092" y="205" type="curve" smooth="yes"/>
      <point x="1015" y="205" type="line"/>
      <point x="1084" y="600" type="line" smooth="yes"/>
      <point x="1088" y="625"/>
      <point x="1091" y="652"/>
      <point x="1091" y="676" type="curve" smooth="yes"/>
      <point x="1091" y="836"/>
      <point x="993" y="946"/>
      <point x="833" y="946" type="curve" smooth="yes"/>
      <point x="726" y="946"/>
      <point x="624" y="891"/>
      <point x="523" y="774" type="curve"/>
      <point x="607" y="1249" type="line" smooth="yes"/>
      <point x="615" y="1294"/>
      <point x="600" y="1312"/>
      <point x="555" y="1312" type="curve" smooth="yes"/>
    </contour>
  </outline>
</glyph>
<glyph name="m" format="1">
  <advance width="1228"/>
  <unicode hex="006D"/>
  <outline>
    <contour>
      <point x="958" y="946"/>
      <point x="857" y="878"/>
      <point x="782" y="743" type="curve"/>
      <point x="773" y="871"/>
      <point x="726" y="946"/>
      <point x="622" y="946" type="curve" smooth="yes"/>
      <point x="522" y="946"/>
      <point x="426" y="869"/>
      <point x="342" y="717" type="curve"/>
      <point x="367" y="861" type="line" smooth="yes"/>
      <point x="375" y="906"/>
      <point x="360" y="924"/>
      <point x="315" y="924" type="curve" smooth="yes"/>
      <point x="141" y="924" type="line" smooth="yes"/>
      <point x="96" y="924"/>
      <point x="75" y="906"/>
      <point x="60" y="821" type="curve" smooth="yes"/>
      <point x="45" y="736"/>
      <point x="60" y="719"/>
      <point x="105" y="719" type="curve" smooth="yes"/>
      <point x="162" y="719" type="line"/>
      <point x="47" y="63" type="line" smooth="yes"/>
      <point x="39" y="18"/>
      <point x="54" y="0"/>
      <point x="99" y="0" type="curve" smooth="yes"/>
      <point x="223" y="0" type="line" smooth="yes"/>
      <point x="268" y="0"/>
      <point x="289" y="18"/>
      <point x="297" y="63" type="curve" smooth="yes"/>
      <point x="357" y="403" type="line" smooth="yes"/>
      <point x="390" y="595"/>
      <point x="448" y="689"/>
      <point x="509" y="689" type="curve" smooth="yes"/>
      <point x="536" y="689"/>
      <point x="548" y="671"/>
      <point x="548" y="635" type="curve" smooth="yes"/>
      <point x="548" y="621"/>
      <point x="546" y="605"/>
      <point x="543" y="586" type="curve" smooth="yes"/>
      <point x="451" y="63" type="line" smooth="yes"/>
      <point x="443" y="18"/>
      <point x="458" y="0"/>
      <point x="503" y="0" type="curve" smooth="yes"/>
      <point x="627" y="0" type="line" smooth="yes"/>
      <point x="672" y="0"/>
      <point x="693" y="18"/>
      <point x="701" y="63" type="curve" smooth="yes"/>
      <point x="761" y="403" type="line" smooth="yes"/>
      <point x="794" y="595"/>
      <point x="852" y="689"/>
      <point x="913" y="689" type="curve" smooth="yes"/>
      <point x="940" y="689"/>
      <point x="952" y="671"/>
      <point x="952" y="635" type="curve" smooth="yes"/>
      <point x="952" y="621"/>
      <point x="950" y="605"/>
      <point x="947" y="586" type="curve" smooth="yes"/>
      <point x="855" y="63" type="line" smooth="yes"/>
      <point x="847" y="18"/>
      <point x="862" y="0"/>
      <point x="907" y="0" type="curve" smooth="yes"/>
      <point x="1031" y="0" type="line" smooth="yes"/>
      <point x="1076" y="0"/>
      <point x="1097" y="18"/>
      <point x="1105" y="63" type="curve" smooth="yes"/>
      <point x="1205" y="633" type="line" smooth="yes"/>
      <point x="1212" y="671"/>
      <point x="1215" y="705"/>
      <point x="1215" y="736" type="curve" smooth="yes"/>
      <point x="1215" y="878"/>
      <point x="1148" y="946"/>
      <point x="1052" y="946" type="curve" smooth="yes"/>
    </contour>
    <contour>
      <point x="977" y="205" type="line"/>
      <point x="941" y="0" type="line"/>
      <point x="1027" y="0" type="line" smooth="yes"/>
      <point x="1072" y="0"/>
      <point x="1093" y="17"/>
      <point x="1108" y="102" type="curve" smooth="yes"/>
      <point x="1123" y="187"/>
      <point x="1108" y="205"/>
      <point x="1063" y="205" type="curve" smooth="yes"/>
    </contour>
  </outline>
</glyph>
<glyph name="n" format="1">
  <advance width="1228"/>
  <unicode hex="006E"/>
  <outline>
    <contour>
      <point x="708" y="946"/>
      <point x="590" y="878"/>
      <point x="473" y="716" type="curve"/>
      <point x="498" y="861" type="line" smooth="yes"/>
      <point x="506" y="906"/>
      <point x="491" y="924"/>
      <point x="446" y="924" type="curve" smooth="yes"/>
      <point x="202" y="924" type="line" smooth="yes"/>
      <point x="157" y="924"/>
      <point x="136" y="906"/>
      <point x="121" y="821" type="curve" smooth="yes"/>
      <point x="106" y="736"/>
      <point x="121" y="719"/>
      <point x="166" y="719" type="curve" smooth="yes"/>
      <point x="263" y="719" type="line"/>
      <point x="148" y="63" type="line" smooth="yes"/>
      <point x="140" y="18"/>
      <point x="155" y="0"/>
      <point x="200" y="0" type="curve" smooth="yes"/>
      <point x="324" y="0" type="line" smooth="yes"/>
      <point x="369" y="0"/>
      <point x="390" y="18"/>
      <point x="398" y="63" type="curve" smooth="yes"/>
      <point x="445" y="338" type="line" smooth="yes"/>
      <point x="477" y="526"/>
      <point x="619" y="719"/>
      <point x="738" y="719" type="curve" smooth="yes"/>
      <point x="806" y="719"/>
      <point x="833" y="683"/>
      <point x="833" y="621" type="curve" smooth="yes"/>
      <point x="833" y="603"/>
      <point x="831" y="583"/>
      <point x="827" y="561" type="curve" smooth="yes"/>
      <point x="740" y="63" type="line" smooth="yes"/>
      <point x="732" y="18"/>
      <point x="747" y="0"/>
      <point x="792" y="0" type="curve" smooth="yes"/>
      <point x="1056" y="0" type="line" smooth="yes"/>
      <point x="1101" y="0"/>
      <point x="1121" y="17"/>
      <point x="1136" y="102" type="curve" smooth="yes"/>
      <point x="1151" y="187"/>
      <point x="1137" y="205"/>
      <point x="1092" y="205" type="curve" smooth="yes"/>
      <point x="1015" y="205" type="line"/>
      <point x="1084" y="600" type="line" smooth="yes"/>
      <point x="1088" y="625"/>
      <point x="1091" y="651"/>
      <point x="1091" y="675" type="curve" smooth="yes"/>
      <point x="1091" y="835"/>
      <point x="993" y="946"/>
      <point x="833" y="946" type="curve" smooth="yes"/>
    </contour>
  </outline>
</glyph>
<glyph name="p" format="1">
  <advance width="1228"/>
  <unicode hex="0070"/>
  <outline>
    <contour>
      <point x="675" y="946"/>
      <point x="569" y="886"/>
      <point x="475" y="786" type="curve"/>
      <point x="488" y="861" type="line" smooth="yes"/>
      <point x="496" y="906"/>
      <point x="481" y="924"/>
      <point x="436" y="924" type="curve" smooth="yes"/>
      <point x="202" y="924" type="line" smooth="yes"/>
      <point x="157" y="924"/>
      <point x="136" y="906"/>
      <point x="121" y="821" type="curve" smooth="yes"/>
      <point x="106" y="736"/>
      <point x="121" y="719"/>
      <point x="166" y="719" type="curve" smooth="yes"/>
      <point x="253" y="719" type="line"/>
      <point x="94" y="-183" type="line"/>
      <point x="7" y="-183" type="line" smooth="yes"/>
      <point x="-38" y="-183"/>
      <point x="-59" y="-201"/>
      <point x="-73" y="-286" type="curve" smooth="yes"/>
      <point x="-88" y="-371"/>
      <point x="-73" y="-388"/>
      <point x="-29" y="-388" type="curve" smooth="yes"/>
      <point x="475" y="-388" type="line" smooth="yes"/>
      <point x="520" y="-388"/>
      <point x="541" y="-371"/>
      <point x="556" y="-286" type="curve" smooth="yes"/>
      <point x="571" y="-201"/>
      <point x="556" y="-183"/>
      <point x="511" y="-183" type="curve" smooth="yes"/>
      <point x="344" y="-183" type="line"/>
      <point x="394" y="100" type="line"/>
      <point x="450" y="25"/>
      <point x="540" y="-22"/>
      <point x="646" y="-22" type="curve" smooth="yes"/>
      <point x="992" y="-22"/>
      <point x="1157" y="292"/>
      <point x="1157" y="544" type="curve" smooth="yes"/>
      <point x="1157" y="780"/>
      <point x="1018" y="946"/>
      <point x="796" y="946" type="curve" smooth="yes"/>
    </contour>
    <contour>
      <point x="831" y="719"/>
      <point x="891" y="648"/>
      <point x="891" y="533" type="curve" smooth="yes"/>
      <point x="891" y="404"/>
      <point x="818" y="205"/>
      <point x="636" y="205" type="curve" smooth="yes"/>
      <point x="527" y="205"/>
      <point x="445" y="274"/>
      <point x="445" y="402" type="curve" smooth="yes"/>
      <point x="445" y="549"/>
      <point x="546" y="719"/>
      <point x="726" y="719" type="curve" smooth="yes"/>
    </contour>
  </outline>
</glyph>
<glyph name="r" format="1">
  <advance width="1228"/>
  <unicode hex="0072"/>
  <outline>
    <contour>
      <point x="881" y="946"/>
      <point x="733" y="846"/>
      <point x="602" y="654" type="curve"/>
      <point x="638" y="861" type="line" smooth="yes"/>
      <point x="646" y="906"/>
      <point x="631" y="924"/>
      <point x="586" y="924" type="curve" smooth="yes"/>
      <point x="312" y="924" type="line" smooth="yes"/>
      <point x="267" y="924"/>
      <point x="246" y="906"/>
      <point x="231" y="821" type="curve" smooth="yes"/>
      <point x="216" y="736"/>
      <point x="231" y="719"/>
      <point x="276" y="719" type="curve" smooth="yes"/>
      <point x="393" y="719" type="line"/>
      <point x="303" y="205" type="line"/>
      <point x="156" y="205" type="line" smooth="yes"/>
      <point x="111" y="205"/>
      <point x="89" y="187"/>
      <point x="74" y="102" type="curve" smooth="yes"/>
      <point x="59" y="17"/>
      <point x="75" y="0"/>
      <point x="120" y="0" type="curve" smooth="yes"/>
      <point x="804" y="0" type="line" smooth="yes"/>
      <point x="849" y="0"/>
      <point x="869" y="17"/>
      <point x="884" y="102" type="curve" smooth="yes"/>
      <point x="899" y="187"/>
      <point x="885" y="205"/>
      <point x="840" y="205" type="curve" smooth="yes"/>
      <point x="553" y="205" type="line"/>
      <point x="567" y="290" type="line" smooth="yes"/>
      <point x="604" y="511"/>
      <point x="780" y="675"/>
      <point x="939" y="675" type="curve" smooth="yes"/>
      <point x="976" y="675"/>
      <point x="1012" y="666"/>
      <point x="1045" y="647" type="curve" smooth="yes"/>
      <point x="1084" y="624"/>
      <point x="1127" y="648"/>
      <point x="1172" y="729" type="curve" smooth="yes"/>
      <point x="1213" y="803"/>
      <point x="1209" y="853"/>
      <point x="1163" y="890" type="curve" smooth="yes"/>
      <point x="1117" y="927"/>
      <point x="1065" y="946"/>
      <point x="1010" y="946" type="curve" smooth="yes"/>
    </contour>
  </outline>
</glyph>
<glyph name="s" format="1">
  <advance width="1228"/>
  <unicode hex="0073"/>
  <outline>
    <contour>
      <point x="917" y="946"/>
      <point x="888" y="928"/>
      <point x="879" y="883" type="curve" smooth="yes"/>
      <point x="876" y="868" type="line"/>
      <point x="803" y="920"/>
      <point x="716" y="946"/>
      <point x="612" y="946" type="curve" smooth="yes"/>
      <point x="335" y="946"/>
      <point x="208" y="792"/>
      <point x="208" y="630" type="curve" smooth="yes"/>
      <point x="208" y="528"/>
      <point x="253" y="469"/>
      <point x="317" y="431" type="curve" smooth="yes"/>
      <point x="435" y="361"/>
      <point x="613" y="355"/>
      <point x="716" y="331" type="curve" smooth="yes"/>
      <point x="764" y="320"/>
      <point x="789" y="300"/>
      <point x="789" y="269" type="curve" smooth="yes"/>
      <point x="789" y="222"/>
      <point x="745" y="178"/>
      <point x="613" y="178" type="curve" smooth="yes"/>
      <point x="498" y="178"/>
      <point x="391" y="210"/>
      <point x="335" y="299" type="curve" smooth="yes"/>
      <point x="324" y="317"/>
      <point x="301" y="327"/>
      <point x="257" y="327" type="curve" smooth="yes"/>
      <point x="192" y="327"/>
      <point x="158" y="309"/>
      <point x="150" y="264" type="curve" smooth="yes"/>
      <point x="111" y="41" type="line" smooth="yes"/>
      <point x="103" y="-4"/>
      <point x="133" y="-22"/>
      <point x="218" y="-22" type="curve" smooth="yes"/>
      <point x="303" y="-22"/>
      <point x="344" y="-4"/>
      <point x="351" y="41" type="curve" smooth="yes"/>
      <point x="353" y="54" type="line"/>
      <point x="427" y="5"/>
      <point x="505" y="-22"/>
      <point x="608" y="-22" type="curve" smooth="yes"/>
      <point x="938" y="-22"/>
      <point x="1051" y="153"/>
      <point x="1051" y="315" type="curve" smooth="yes"/>
      <point x="1051" y="415"/>
      <point x="1006" y="472"/>
      <point x="942" y="509" type="curve" smooth="yes"/>
      <point x="824" y="576"/>
      <point x="640" y="581"/>
      <point x="539" y="603" type="curve" smooth="yes"/>
      <point x="494" y="613"/>
      <point x="468" y="628"/>
      <point x="468" y="660" type="curve" smooth="yes"/>
      <point x="468" y="704"/>
      <point x="511" y="746"/>
      <point x="609" y="746" type="curve" smooth="yes"/>
      <point x="736" y="746"/>
      <point x="833" y="717"/>
      <point x="900" y="630" type="curve" smooth="yes"/>
      <point x="911" y="615"/>
      <point x="934" y="609"/>
      <point x="969" y="609" type="curve" smooth="yes"/>
      <point x="1034" y="609"/>
      <point x="1064" y="627"/>
      <point x="1072" y="672" type="curve" smooth="yes"/>
      <point x="1109" y="883" type="line" smooth="yes"/>
      <point x="1117" y="928"/>
      <point x="1087" y="946"/>
      <point x="1002" y="946" type="curve" smooth="yes"/>
    </contour>
  </outline>
</glyph>
<glyph name="t" format="1">
  <advance width="1228"/>
  <unicode hex="0074"/>
  <outline>
    <contour>
      <point x="533" y="1209"/>
      <point x="493" y="1191"/>
      <point x="485" y="1146" type="curve" smooth="yes"/>
      <point x="435" y="864" type="line"/>
      <point x="242" y="864" type="line" smooth="yes"/>
      <point x="197" y="864"/>
      <point x="175" y="841"/>
      <point x="160" y="756" type="curve" smooth="yes"/>
      <point x="145" y="671"/>
      <point x="159" y="649"/>
      <point x="204" y="649" type="curve" smooth="yes"/>
      <point x="397" y="649" type="line"/>
      <point x="348" y="368" type="line" smooth="yes"/>
      <point x="342" y="334"/>
      <point x="339" y="303"/>
      <point x="339" y="273" type="curve" smooth="yes"/>
      <point x="339" y="83"/>
      <point x="455" y="-22"/>
      <point x="656" y="-22" type="curve" smooth="yes"/>
      <point x="771" y="-22"/>
      <point x="899" y="21"/>
      <point x="1031" y="82" type="curve" smooth="yes"/>
      <point x="1079" y="104"/>
      <point x="1092" y="135"/>
      <point x="1065" y="209" type="curve" smooth="yes"/>
      <point x="1036" y="288"/>
      <point x="1007" y="301"/>
      <point x="962" y="283" type="curve" smooth="yes"/>
      <point x="868" y="244"/>
      <point x="766" y="205"/>
      <point x="698" y="205" type="curve" smooth="yes"/>
      <point x="630" y="205"/>
      <point x="593" y="239"/>
      <point x="593" y="316" type="curve" smooth="yes"/>
      <point x="593" y="332"/>
      <point x="594" y="351"/>
      <point x="598" y="371" type="curve" smooth="yes"/>
      <point x="647" y="649" type="line"/>
      <point x="1018" y="649" type="line" smooth="yes"/>
      <point x="1063" y="649"/>
      <point x="1085" y="671"/>
      <point x="1100" y="756" type="curve" smooth="yes"/>
      <point x="1115" y="841"/>
      <point x="1101" y="864"/>
      <point x="1056" y="864" type="curve" smooth="yes"/>
      <point x="685" y="864" type="line"/>
      <point x="735" y="1146" type="line" smooth="yes"/>
      <point x="743" y="1191"/>
      <point x="723" y="1209"/>
      <point x="628" y="1209" type="curve" smooth="yes"/>
    </contour>
  </outline>
</glyph>
<glyph name="u" format="1">
  <advance width="1228"/>
  <unicode hex="0075"/>
  <outline>
    <contour>
      <point x="767" y="924" type="line" smooth="yes"/>
      <point x="722" y="924"/>
      <point x="701" y="907"/>
      <point x="686" y="822" type="curve" smooth="yes"/>
      <point x="671" y="737"/>
      <point x="686" y="719"/>
      <point x="731" y="719" type="curve" smooth="yes"/>
      <point x="838" y="719" type="line"/>
      <point x="816" y="586" type="line" smooth="yes"/>
      <point x="785" y="398"/>
      <point x="642" y="205"/>
      <point x="523" y="205" type="curve" smooth="yes"/>
      <point x="454" y="205"/>
      <point x="428" y="242"/>
      <point x="428" y="305" type="curve" smooth="yes"/>
      <point x="428" y="323"/>
      <point x="430" y="342"/>
      <point x="434" y="363" type="curve" smooth="yes"/>
      <point x="521" y="861" type="line" smooth="yes"/>
      <point x="529" y="906"/>
      <point x="514" y="924"/>
      <point x="469" y="924" type="curve" smooth="yes"/>
      <point x="205" y="924" type="line" smooth="yes"/>
      <point x="160" y="924"/>
      <point x="139" y="907"/>
      <point x="124" y="822" type="curve" smooth="yes"/>
      <point x="109" y="737"/>
      <point x="124" y="719"/>
      <point x="169" y="719" type="curve" smooth="yes"/>
      <point x="246" y="719" type="line"/>
      <point x="177" y="324" type="line" smooth="yes"/>
      <point x="172" y="298"/>
      <point x="170" y="273"/>
      <point x="170" y="249" type="curve" smooth="yes"/>
      <point x="170" y="89"/>
      <point x="268" y="-22"/>
      <point x="428" y="-22" type="curve" smooth="yes"/>
      <point x="553" y="-22"/>
      <point x="671" y="46"/>
      <point x="788" y="208" type="curve"/>
      <point x="763" y="63" type="line" smooth="yes"/>
      <point x="755" y="18"/>
      <point x="770" y="0"/>
      <point x="815" y="0" type="curve" smooth="yes"/>
      <point x="1039" y="0" type="line" smooth="yes"/>
      <point x="1084" y="0"/>
      <point x="1105" y="18"/>
      <point x="1120" y="103" type="curve" smooth="yes"/>
      <point x="1135" y="188"/>
      <point x="1120" y="205"/>
      <point x="1075" y="205" type="curve" smooth="yes"/>
      <point x="998" y="205" type="line"/>
      <point x="1113" y="861" type="line" smooth="yes"/>
      <point x="1121" y="906"/>
      <point x="1106" y="924"/>
      <point x="1061" y="924" type="curve" smooth="yes"/>
    </contour>
  </outline>
</glyph>
<glyph name="v" format="1">
  <advance width="1228"/>
  <unicode hex="0076"/>
  <outline>
    <contour>
      <point x="820" y="924" type="line" smooth="yes"/>
      <point x="775" y="924"/>
      <point x="754" y="906"/>
      <point x="739" y="821" type="curve" smooth="yes"/>
      <point x="724" y="736"/>
      <point x="739" y="719"/>
      <point x="784" y="719" type="curve" smooth="yes"/>
      <point x="839" y="719" type="line"/>
      <point x="583" y="278" type="line"/>
      <point x="483" y="719" type="line"/>
      <point x="550" y="719" type="line" smooth="yes"/>
      <point x="595" y="719"/>
      <point x="616" y="736"/>
      <point x="631" y="821" type="curve" smooth="yes"/>
      <point x="646" y="906"/>
      <point x="631" y="924"/>
      <point x="586" y="924" type="curve" smooth="yes"/>
      <point x="195" y="924" type="line" smooth="yes"/>
      <point x="150" y="924"/>
      <point x="129" y="906"/>
      <point x="114" y="821" type="curve" smooth="yes"/>
      <point x="99" y="736"/>
      <point x="114" y="719"/>
      <point x="159" y="719" type="curve" smooth="yes"/>
      <point x="225" y="719" type="line"/>
      <point x="397" y="43" type="line" smooth="yes"/>
      <point x="408" y="-1"/>
      <point x="440" y="-22"/>
      <point x="537" y="-22" type="curve" smooth="yes"/>
      <point x="633" y="-22"/>
      <point x="674" y="-2"/>
      <point x="701" y="43" type="curve" smooth="yes"/>
      <point x="1113" y="719" type="line"/>
      <point x="1181" y="719" type="line" smooth="yes"/>
      <point x="1226" y="719"/>
      <point x="1247" y="736"/>
      <point x="1262" y="821" type="curve" smooth="yes"/>
      <point x="1277" y="906"/>
      <point x="1262" y="924"/>
      <point x="1217" y="924" type="curve" smooth="yes"/>
    </contour>
  </outline>
</glyph>
<glyph name="y" format="1">
  <advance width="1228"/>
  <unicode hex="0079"/>
  <outline>
    <contour>
      <point x="823" y="924" type="line" smooth="yes"/>
      <point x="778" y="924"/>
      <point x="757" y="906"/>
      <point x="742" y="821" type="curve" smooth="yes"/>
      <point x="727" y="736"/>
      <point x="742" y="719"/>
      <point x="787" y="719" type="curve" smooth="yes"/>
      <point x="841" y="719" type="line"/>
      <point x="600" y="339" type="line"/>
      <point x="493" y="719" type="line"/>
      <point x="553" y="719" type="line" smooth="yes"/>
      <point x="598" y="719"/>
      <point x="619" y="736"/>
      <point x="634" y="821" type="curve" smooth="yes"/>
      <point x="649" y="906"/>
      <point x="634" y="924"/>
      <point x="589" y="924" type="curve" smooth="yes"/>
      <point x="195" y="924" type="line" smooth="yes"/>
      <point x="150" y="924"/>
      <point x="129" y="906"/>
      <point x="114" y="821" type="curve" smooth="yes"/>
      <point x="99" y="736"/>
      <point x="114" y="719"/>
      <point x="159" y="719" type="curve" smooth="yes"/>
      <point x="234" y="719" type="line"/>
      <point x="426" y="100" type="line"/>
      <point x="282" y="-109"/>
      <point x="216" y="-175"/>
      <point x="57" y="-184" type="curve" smooth="yes"/>
      <point x="21" y="-186"/>
      <point x="-7" y="-216"/>
      <point x="-7" y="-307" type="curve" smooth="yes"/>
      <point x="-7" y="-390"/>
      <point x="17" y="-411"/>
      <point x="57" y="-410" type="curve" smooth="yes"/>
      <point x="302" y="-402"/>
      <point x="415" y="-336"/>
      <point x="602" y="-57" type="curve" smooth="yes"/>
      <point x="1122" y="719" type="line"/>
      <point x="1181" y="719" type="line" smooth="yes"/>
      <point x="1226" y="719"/>
      <point x="1247" y="736"/>
      <point x="1262" y="821" type="curve" smooth="yes"/>
      <point x="1277" y="906"/>
      <point x="1262" y="924"/>
      <point x="1217" y="924" type="curve" smooth="yes"/>
    </contour>
  </outline>
</glyph>
<glyph name="z" format="1">
  <advance width="1228"/>
  <unicode hex="007A"/>
  <outline>
    <contour>
      <point x="305" y="924" type="line" smooth="yes"/>
      <point x="259" y="924"/>
      <point x="237" y="905"/>
      <point x="229" y="859" type="curve" smooth="yes"/>
      <point x="184" y="605" type="line" smooth="yes"/>
      <point x="176" y="560"/>
      <point x="186" y="542"/>
      <point x="281" y="542" type="curve" smooth="yes"/>
      <point x="376" y="542"/>
      <point x="406" y="560"/>
      <point x="414" y="605" type="curve" smooth="yes"/>
      <point x="434" y="719" type="line"/>
      <point x="729" y="719" type="line"/>
      <point x="142" y="184" type="line" smooth="yes"/>
      <point x="114" y="159"/>
      <point x="102" y="138"/>
      <point x="95" y="102" type="curve" smooth="yes"/>
      <point x="80" y="17"/>
      <point x="96" y="0"/>
      <point x="141" y="0" type="curve" smooth="yes"/>
      <point x="955" y="0" type="line" smooth="yes"/>
      <point x="1001" y="0"/>
      <point x="1023" y="19"/>
      <point x="1031" y="65" type="curve" smooth="yes"/>
      <point x="1078" y="329" type="line" smooth="yes"/>
      <point x="1085" y="374"/>
      <point x="1076" y="392"/>
      <point x="981" y="392" type="curve" smooth="yes"/>
      <point x="886" y="392"/>
      <point x="855" y="374"/>
      <point x="848" y="329" type="curve" smooth="yes"/>
      <point x="826" y="205" type="line"/>
      <point x="511" y="205" type="line"/>
      <point x="1098" y="740" type="line" smooth="yes"/>
      <point x="1126" y="765"/>
      <point x="1138" y="786"/>
      <point x="1144" y="822" type="curve" smooth="yes"/>
      <point x="1159" y="907"/>
      <point x="1144" y="924"/>
      <point x="1099" y="924" type="curve" smooth="yes"/>
    </contour>
  </outline>
</glyph>
<glyph name="bar" format="1">
  <advance width="1228"/>
  <unicode hex="007C"/>
  <outline>
    <contour>
      <point x="711" y="1394"/>
      <point x="661" y="1376"/>
      <point x="653" y="1331" type="curve" smooth="yes"/>
      <point x="366" y="-292" type="line" smooth="yes"/>
      <point x="358" y="-337"/>
      <point x="388" y="-355"/>
      <point x="473" y="-355" type="curve" smooth="yes"/>
      <point x="558" y="-355"/>
      <point x="608" y="-337"/>
      <point x="616" y="-292" type="curve" smooth="yes"/>
      <point x="903" y="1331" type="line" smooth="yes"/>
      <point x="911" y="1376"/>
      <point x="881" y="1394"/>
      <point x="796" y="1394" type="curve" smooth="yes"/>
    </contour>
  </outline>
</glyph>
<glyph name="braceright" format="1">
  <advance width="1228"/>
  <unicode hex="007D"/>
  <outline>
    <contour>
      <point x="511" y="-333"/>
      <point x="678" y="-225"/>
      <point x="706" y="77" type="curve" smooth="yes"/>
      <point x="720" y="227" type="line" smooth="yes"/>
      <point x="733" y="360"/>
      <point x="822" y="435"/>
      <point x="984" y="435" type="curve" smooth="yes"/>
      <point x="1029" y="435"/>
      <point x="1050" y="452"/>
      <point x="1065" y="541" type="curve" smooth="yes"/>
      <point x="1081" y="630"/>
      <point x="1066" y="648"/>
      <point x="1021" y="648" type="curve" smooth="yes"/>
      <point x="859" y="648"/>
      <point x="813" y="724"/>
      <point x="829" y="850" type="curve" smooth="yes"/>
      <point x="839" y="929" type="line" smooth="yes"/>
      <point x="877" y="1225"/>
      <point x="777" y="1372"/>
      <point x="432" y="1372" type="curve" smooth="yes"/>
      <point x="387" y="1372"/>
      <point x="365" y="1351"/>
      <point x="350" y="1266" type="curve" smooth="yes"/>
      <point x="334" y="1173"/>
      <point x="349" y="1159"/>
      <point x="394" y="1159" type="curve" smooth="yes"/>
      <point x="591" y="1159"/>
      <point x="610" y="1071"/>
      <point x="593" y="914" type="curve" smooth="yes"/>
      <point x="586" y="850" type="line" smooth="yes"/>
      <point x="570" y="704"/>
      <point x="612" y="594"/>
      <point x="761" y="546" type="curve"/>
      <point x="760" y="536" type="line"/>
      <point x="569" y="491"/>
      <point x="494" y="387"/>
      <point x="475" y="237" type="curve" smooth="yes"/>
      <point x="458" y="99" type="line" smooth="yes"/>
      <point x="440" y="-47"/>
      <point x="376" y="-120"/>
      <point x="189" y="-120" type="curve" smooth="yes"/>
      <point x="144" y="-120"/>
      <point x="123" y="-135"/>
      <point x="107" y="-228" type="curve" smooth="yes"/>
      <point x="92" y="-313"/>
      <point x="106" y="-333"/>
      <point x="151" y="-333" type="curve" smooth="yes"/>
    </contour>
  </outline>
</glyph>
<glyph name="asciitilde" format="1">
  <advance width="1228"/>
  <unicode hex="007E"/>
  <outline>
    <contour>
      <point x="339" y="765"/>
      <point x="250" y="703"/>
      <point x="174" y="590" type="curve" smooth="yes"/>
      <point x="150" y="554"/>
      <point x="159" y="517"/>
      <point x="208" y="474" type="curve" smooth="yes"/>
      <point x="257" y="431"/>
      <point x="294" y="426"/>
      <point x="322" y="456" type="curve" smooth="yes"/>
      <point x="363" y="500"/>
      <point x="401" y="522"/>
      <point x="454" y="522" type="curve" smooth="yes"/>
      <point x="567" y="522"/>
      <point x="679" y="396"/>
      <point x="830" y="396" type="curve" smooth="yes"/>
      <point x="953" y="396"/>
      <point x="1042" y="458"/>
      <point x="1118" y="571" type="curve" smooth="yes"/>
      <point x="1142" y="607"/>
      <point x="1133" y="644"/>
      <point x="1084" y="687" type="curve" smooth="yes"/>
      <point x="1035" y="730"/>
      <point x="998" y="735"/>
      <point x="970" y="705" type="curve" smooth="yes"/>
      <point x="929" y="661"/>
      <point x="891" y="639"/>
      <point x="838" y="639" type="curve" smooth="yes"/>
      <point x="722" y="639"/>
      <point x="613" y="765"/>
      <point x="462" y="765" type="curve" smooth="yes"/>
    </contour>
  </outline>
</glyph>
<glyph name="cent" format="1">
  <advance width="1228"/>
  <unicode hex="00A2"/>
  <outline>
    <contour>
      <point x="704" y="1312"/>
      <point x="683" y="1294"/>
      <point x="675" y="1249" type="curve" smooth="yes"/>
      <point x="646" y="1083" type="line"/>
      <point x="329" y="1052"/>
      <point x="159" y="779"/>
      <point x="159" y="529" type="curve" smooth="yes"/>
      <point x="159" y="331"/>
      <point x="277" y="175"/>
      <point x="478" y="131" type="curve"/>
      <point x="444" y="-62" type="line" smooth="yes"/>
      <point x="436" y="-107"/>
      <point x="450" y="-125"/>
      <point x="525" y="-125" type="curve" smooth="yes"/>
      <point x="600" y="-125"/>
      <point x="622" y="-107"/>
      <point x="630" y="-62" type="curve" smooth="yes"/>
      <point x="662" y="120" type="line"/>
      <point x="785" y="130"/>
      <point x="918" y="168"/>
      <point x="1030" y="223" type="curve" smooth="yes"/>
      <point x="1076" y="246"/>
      <point x="1089" y="286"/>
      <point x="1060" y="365" type="curve" smooth="yes"/>
      <point x="1032" y="440"/>
      <point x="998" y="462"/>
      <point x="955" y="439" type="curve" smooth="yes"/>
      <point x="873" y="395"/>
      <point x="786" y="363"/>
      <point x="702" y="351" type="curve"/>
      <point x="790" y="846" type="line"/>
      <point x="853" y="822"/>
      <point x="877" y="764"/>
      <point x="867" y="702" type="curve" smooth="yes"/>
      <point x="859" y="657"/>
      <point x="878" y="639"/>
      <point x="973" y="639" type="curve" smooth="yes"/>
      <point x="1068" y="639"/>
      <point x="1109" y="657"/>
      <point x="1117" y="702" type="curve" smooth="yes"/>
      <point x="1173" y="1023" type="line" smooth="yes"/>
      <point x="1181" y="1068"/>
      <point x="1161" y="1086"/>
      <point x="1076" y="1086" type="curve" smooth="yes"/>
      <point x="991" y="1086"/>
      <point x="951" y="1068"/>
      <point x="943" y="1023" type="curve" smooth="yes"/>
      <point x="933" y="964" type="line"/>
      <point x="914" y="1010"/>
      <point x="877" y="1043"/>
      <point x="828" y="1063" type="curve"/>
      <point x="861" y="1249" type="line" smooth="yes"/>
      <point x="869" y="1294"/>
      <point x="854" y="1312"/>
      <point x="779" y="1312" type="curve" smooth="yes"/>
    </contour>
    <contour>
      <point x="519" y="368" type="line"/>
      <point x="459" y="399"/>
      <point x="425" y="459"/>
      <point x="425" y="542" type="curve" smooth="yes"/>
      <point x="425" y="655"/>
      <point x="482" y="786"/>
      <point x="602" y="837" type="curve"/>
    </contour>
  </outline>
</glyph>
<glyph name="sterling" format="1">
  <advance width="1228"/>
  <unicode hex="00A3"/>
  <outline>
    <contour>
      <point x="446" y="1209"/>
      <point x="320" y="989"/>
      <point x="320" y="820" type="curve" smooth="yes"/>
      <point x="320" y="757"/>
      <point x="338" y="703"/>
      <point x="355" y="650" type="curve"/>
      <point x="257" y="650" type="line" smooth="yes"/>
      <point x="212" y="650"/>
      <point x="191" y="632"/>
      <point x="174" y="537" type="curve" smooth="yes"/>
      <point x="157" y="442"/>
      <point x="172" y="425"/>
      <point x="217" y="425" type="curve" smooth="yes"/>
      <point x="380" y="425" type="line"/>
      <point x="354" y="315"/>
      <point x="282" y="247"/>
      <point x="157" y="161" type="curve" smooth="yes"/>
      <point x="122" y="137"/>
      <point x="123" y="84"/>
      <point x="140" y="39" type="curve" smooth="yes"/>
      <point x="158" y="-8"/>
      <point x="194" y="-46"/>
      <point x="226" y="-34" type="curve" smooth="yes"/>
      <point x="321" y="2"/>
      <point x="398" y="13"/>
      <point x="464" y="13" type="curve" smooth="yes"/>
      <point x="580" y="13"/>
      <point x="662" y="-22"/>
      <point x="757" y="-22" type="curve" smooth="yes"/>
      <point x="825" y="-22"/>
      <point x="898" y="-6"/>
      <point x="994" y="56" type="curve" smooth="yes"/>
      <point x="1028" y="78"/>
      <point x="1029" y="135"/>
      <point x="1012" y="182" type="curve" smooth="yes"/>
      <point x="995" y="229"/>
      <point x="960" y="267"/>
      <point x="925" y="251" type="curve" smooth="yes"/>
      <point x="868" y="226"/>
      <point x="825" y="218"/>
      <point x="787" y="218" type="curve" smooth="yes"/>
      <point x="730" y="218"/>
      <point x="685" y="235"/>
      <point x="622" y="235" type="curve" smooth="yes"/>
      <point x="582" y="235"/>
      <point x="536" y="228"/>
      <point x="475" y="207" type="curve"/>
      <point x="553" y="277"/>
      <point x="606" y="342"/>
      <point x="629" y="425" type="curve"/>
      <point x="869" y="425" type="line" smooth="yes"/>
      <point x="914" y="425"/>
      <point x="935" y="442"/>
      <point x="952" y="537" type="curve" smooth="yes"/>
      <point x="969" y="632"/>
      <point x="954" y="650"/>
      <point x="909" y="650" type="curve" smooth="yes"/>
      <point x="618" y="650" type="line"/>
      <point x="597" y="708"/>
      <point x="572" y="758"/>
      <point x="572" y="819" type="curve" smooth="yes"/>
      <point x="572" y="890"/>
      <point x="611" y="992"/>
      <point x="732" y="992" type="curve" smooth="yes"/>
      <point x="790" y="992"/>
      <point x="832" y="981"/>
      <point x="870" y="961" type="curve"/>
      <point x="850" y="850" type="line" smooth="yes"/>
      <point x="842" y="805"/>
      <point x="862" y="787"/>
      <point x="947" y="787" type="curve" smooth="yes"/>
      <point x="1032" y="787"/>
      <point x="1072" y="805"/>
      <point x="1080" y="850" type="curve" smooth="yes"/>
      <point x="1117" y="1057" type="line" smooth="yes"/>
      <point x="1122" y="1086"/>
      <point x="1108" y="1105"/>
      <point x="1082" y="1120" type="curve" smooth="yes"/>
      <point x="977" y="1179"/>
      <point x="860" y="1209"/>
      <point x="753" y="1209" type="curve" smooth="yes"/>
    </contour>
  </outline>
</glyph>
<glyph name="currency" format="1">
  <advance width="1228"/>
  <unicode hex="00A4"/>
  <outline>
    <contour>
      <point x="413" y="1006"/>
      <point x="239" y="796"/>
      <point x="239" y="567" type="curve" smooth="yes"/>
      <point x="239" y="349"/>
      <point x="393" y="198"/>
      <point x="615" y="198" type="curve" smooth="yes"/>
      <point x="887" y="198"/>
      <point x="1061" y="408"/>
      <point x="1061" y="637" type="curve" smooth="yes"/>
      <point x="1061" y="855"/>
      <point x="907" y="1006"/>
      <point x="685" y="1006" type="curve" smooth="yes"/>
    </contour>
    <contour>
      <point x="103" y="291" type="line" smooth="yes"/>
      <point x="68" y="262"/>
      <point x="66" y="237"/>
      <point x="128" y="164" type="curve" smooth="yes"/>
      <point x="189" y="91"/>
      <point x="214" y="90"/>
      <point x="248" y="119" type="curve" smooth="yes"/>
      <point x="524" y="351" type="line"/>
      <point x="385" y="528" type="line"/>
    </contour>
    <contour>
      <point x="709" y="357" type="line"/>
      <point x="912" y="115" type="line" smooth="yes"/>
      <point x="941" y="81"/>
      <point x="965" y="77"/>
      <point x="1038" y="139" type="curve" smooth="yes"/>
      <point x="1111" y="200"/>
      <point x="1113" y="225"/>
      <point x="1084" y="259" type="curve" smooth="yes"/>
      <point x="879" y="503" type="line"/>
    </contour>
    <contour>
      <point x="773" y="790"/>
      <point x="839" y="722"/>
      <point x="839" y="625" type="curve" smooth="yes"/>
      <point x="839" y="518"/>
      <point x="765" y="414"/>
      <point x="631" y="414" type="curve" smooth="yes"/>
      <point x="527" y="414"/>
      <point x="461" y="482"/>
      <point x="461" y="579" type="curve" smooth="yes"/>
      <point x="461" y="686"/>
      <point x="535" y="790"/>
      <point x="669" y="790" type="curve" smooth="yes"/>
    </contour>
    <contour>
      <point x="188" y="1003"/>
      <point x="187" y="978"/>
      <point x="216" y="944" type="curve" smooth="yes"/>
      <point x="421" y="700" type="line"/>
      <point x="591" y="847" type="line"/>
      <point x="388" y="1089" type="line" smooth="yes"/>
      <point x="359" y="1124"/>
      <point x="334" y="1126"/>
      <point x="261" y="1064" type="curve" smooth="yes"/>
    </contour>
    <contour>
      <point x="773" y="854" type="line"/>
      <point x="915" y="679" type="line"/>
      <point x="1194" y="914" type="line" smooth="yes"/>
      <point x="1228" y="943"/>
      <point x="1232" y="967"/>
      <point x="1170" y="1040" type="curve" smooth="yes"/>
      <point x="1109" y="1113"/>
      <point x="1084" y="1115"/>
      <point x="1050" y="1086" type="curve" smooth="yes"/>
    </contour>
  </outline>
</glyph>
<glyph name="brokenbar" format="1">
  <advance width="1228"/>
  <unicode hex="00A6"/>
  <outline>
    <contour>
      <point x="711" y="1394"/>
      <point x="661" y="1376"/>
      <point x="653" y="1331" type="curve" smooth="yes"/>
      <point x="543" y="708" type="line" smooth="yes"/>
      <point x="535" y="663"/>
      <point x="565" y="645"/>
      <point x="650" y="645" type="curve" smooth="yes"/>
      <point x="735" y="645"/>
      <point x="785" y="663"/>
      <point x="793" y="708" type="curve" smooth="yes"/>
      <point x="903" y="1331" type="line" smooth="yes"/>
      <point x="911" y="1376"/>
      <point x="881" y="1394"/>
      <point x="796" y="1394" type="curve" smooth="yes"/>
    </contour>
    <contour>
      <point x="534" y="394"/>
      <point x="484" y="376"/>
      <point x="476" y="331" type="curve" smooth="yes"/>
      <point x="366" y="-292" type="line" smooth="yes"/>
      <point x="358" y="-337"/>
      <point x="388" y="-355"/>
      <point x="473" y="-355" type="curve" smooth="yes"/>
      <point x="558" y="-355"/>
      <point x="608" y="-337"/>
      <point x="616" y="-292" type="curve" smooth="yes"/>
      <point x="726" y="331" type="line" smooth="yes"/>
      <point x="734" y="376"/>
      <point x="704" y="394"/>
      <point x="619" y="394" type="curve" smooth="yes"/>
    </contour>
  </outline>
</glyph>
<glyph name="section" format="1">
  <advance width="1228"/>
  <unicode hex="00A7"/>
  <outline>
    <contour>
      <point x="688" y="1187" type="line" smooth="yes"/>
      <point x="439" y="1187"/>
      <point x="346" y="1013"/>
      <point x="346" y="868" type="curve" smooth="yes"/>
      <point x="346" y="854"/>
      <point x="346" y="841"/>
      <point x="348" y="828" type="curve"/>
      <point x="250" y="757"/>
      <point x="189" y="657"/>
      <point x="189" y="534" type="curve" smooth="yes"/>
      <point x="189" y="429"/>
      <point x="245" y="343"/>
      <point x="336" y="293" type="curve" smooth="yes"/>
      <point x="602" y="148" type="line" smooth="yes"/>
      <point x="646" y="124"/>
      <point x="660" y="96"/>
      <point x="660" y="62" type="curve" smooth="yes"/>
      <point x="660" y="10"/>
      <point x="634" y="-35"/>
      <point x="557" y="-35" type="curve" smooth="yes"/>
      <point x="364" y="-35" type="line"/>
      <point x="387" y="97" type="line" smooth="yes"/>
      <point x="395" y="142"/>
      <point x="375" y="160"/>
      <point x="290" y="160" type="curve" smooth="yes"/>
      <point x="205" y="160"/>
      <point x="165" y="142"/>
      <point x="157" y="97" type="curve" smooth="yes"/>
      <point x="111" y="-165" type="line" smooth="yes"/>
      <point x="103" y="-211"/>
      <point x="118" y="-230"/>
      <point x="164" y="-230" type="curve" smooth="yes"/>
      <point x="568" y="-230" type="line" smooth="yes"/>
      <point x="817" y="-230"/>
      <point x="910" y="-56"/>
      <point x="910" y="89" type="curve" smooth="yes"/>
      <point x="910" y="102"/>
      <point x="909" y="115"/>
      <point x="907" y="128" type="curve"/>
      <point x="1006" y="199"/>
      <point x="1067" y="300"/>
      <point x="1067" y="423" type="curve" smooth="yes"/>
      <point x="1067" y="528"/>
      <point x="1011" y="614"/>
      <point x="920" y="664" type="curve" smooth="yes"/>
      <point x="654" y="809" type="line" smooth="yes"/>
      <point x="610" y="833"/>
      <point x="596" y="861"/>
      <point x="596" y="895" type="curve" smooth="yes"/>
      <point x="596" y="947"/>
      <point x="622" y="992"/>
      <point x="699" y="992" type="curve" smooth="yes"/>
      <point x="892" y="992" type="line"/>
      <point x="869" y="860" type="line" smooth="yes"/>
      <point x="861" y="815"/>
      <point x="881" y="797"/>
      <point x="966" y="797" type="curve" smooth="yes"/>
      <point x="1051" y="797"/>
      <point x="1091" y="815"/>
      <point x="1099" y="860" type="curve" smooth="yes"/>
      <point x="1145" y="1122" type="line" smooth="yes"/>
      <point x="1153" y="1168"/>
      <point x="1138" y="1187"/>
      <point x="1092" y="1187" type="curve" smooth="yes"/>
    </contour>
    <contour>
      <point x="478" y="637"/>
      <point x="491" y="629"/>
      <point x="505" y="622" type="curve"/>
      <point x="747" y="490" type="line" smooth="yes"/>
      <point x="798" y="462"/>
      <point x="817" y="432"/>
      <point x="817" y="392" type="curve" smooth="yes"/>
      <point x="817" y="360"/>
      <point x="808" y="334"/>
      <point x="790" y="311" type="curve"/>
      <point x="778" y="319"/>
      <point x="765" y="327"/>
      <point x="751" y="335" type="curve" smooth="yes"/>
      <point x="509" y="467" type="line" smooth="yes"/>
      <point x="458" y="495"/>
      <point x="439" y="525"/>
      <point x="439" y="565" type="curve" smooth="yes"/>
      <point x="439" y="596"/>
      <point x="447" y="623"/>
      <point x="466" y="646" type="curve"/>
    </contour>
  </outline>
</glyph>
<glyph name="copyright" format="1">
  <advance width="1228"/>
  <unicode hex="00A9"/>
  <outline>
    <contour>
      <point x="325" y="1209"/>
      <point x="55" y="852"/>
      <point x="55" y="493" type="curve" smooth="yes"/>
      <point x="55" y="200"/>
      <point x="250" y="-22"/>
      <point x="553" y="-22" type="curve" smooth="yes"/>
      <point x="970" y="-22"/>
      <point x="1239" y="335"/>
      <point x="1239" y="694" type="curve" smooth="yes"/>
      <point x="1239" y="990"/>
      <point x="1044" y="1209"/>
      <point x="742" y="1209" type="curve" smooth="yes"/>
    </contour>
    <contour>
      <point x="616" y="937"/>
      <point x="520" y="899"/>
      <point x="451" y="828" type="curve" smooth="yes"/>
      <point x="371" y="746"/>
      <point x="336" y="622"/>
      <point x="336" y="528" type="curve" smooth="yes"/>
      <point x="336" y="356"/>
      <point x="453" y="249"/>
      <point x="622" y="249" type="curve" smooth="yes"/>
      <point x="684" y="249"/>
      <point x="754" y="264"/>
      <point x="816" y="292" type="curve" smooth="yes"/>
      <point x="858" y="311"/>
      <point x="862" y="341"/>
      <point x="847" y="395" type="curve" smooth="yes"/>
      <point x="833" y="446"/>
      <point x="822" y="462"/>
      <point x="786" y="450" type="curve" smooth="yes"/>
      <point x="737" y="434"/>
      <point x="690" y="422"/>
      <point x="643" y="422" type="curve" smooth="yes"/>
      <point x="562" y="422"/>
      <point x="515" y="467"/>
      <point x="515" y="549" type="curve" smooth="yes"/>
      <point x="515" y="609"/>
      <point x="536" y="670"/>
      <point x="574" y="711" type="curve" smooth="yes"/>
      <point x="607" y="746"/>
      <point x="651" y="764"/>
      <point x="703" y="764" type="curve" smooth="yes"/>
      <point x="750" y="764"/>
      <point x="793" y="752"/>
      <point x="836" y="736" type="curve" smooth="yes"/>
      <point x="868" y="724"/>
      <point x="894" y="741"/>
      <point x="916" y="792" type="curve" smooth="yes"/>
      <point x="940" y="848"/>
      <point x="938" y="875"/>
      <point x="902" y="894" type="curve" smooth="yes"/>
      <point x="850" y="922"/>
      <point x="786" y="937"/>
      <point x="724" y="937" type="curve" smooth="yes"/>
    </contour>
    <contour>
      <point x="957" y="1056"/>
      <point x="1088" y="908"/>
      <point x="1088" y="692" type="curve" smooth="yes"/>
      <point x="1088" y="412"/>
      <point x="881" y="131"/>
      <point x="566" y="131" type="curve" smooth="yes"/>
      <point x="337" y="131"/>
      <point x="206" y="282"/>
      <point x="206" y="495" type="curve" smooth="yes"/>
      <point x="206" y="775"/>
      <point x="414" y="1056"/>
      <point x="729" y="1056" type="curve" smooth="yes"/>
    </contour>
  </outline>
</glyph>
<glyph name="ordfeminine" format="1">
  <advance width="1228"/>
  <unicode hex="00AA"/>
  <outline>
    <contour>
      <point x="428" y="1209"/>
      <point x="301" y="968"/>
      <point x="301" y="774" type="curve" smooth="yes"/>
      <point x="301" y="602"/>
      <point x="406" y="465"/>
      <point x="586" y="465" type="curve" smooth="yes"/>
      <point x="698" y="465"/>
      <point x="792" y="513"/>
      <point x="872" y="619" type="curve"/>
      <point x="856" y="616" type="line"/>
      <point x="870" y="521"/>
      <point x="936" y="482"/>
      <point x="1023" y="482" type="curve" smooth="yes"/>
      <point x="1041" y="482" type="line" smooth="yes"/>
      <point x="1075" y="482"/>
      <point x="1092" y="497"/>
      <point x="1103" y="566" type="curve" smooth="yes"/>
      <point x="1114" y="635"/>
      <point x="1104" y="649"/>
      <point x="1071" y="649" type="curve" smooth="yes"/>
      <point x="1067" y="649" type="line" smooth="yes"/>
      <point x="1022" y="649"/>
      <point x="1001" y="674"/>
      <point x="1013" y="740" type="curve" smooth="yes"/>
      <point x="1085" y="1151" type="line" smooth="yes"/>
      <point x="1091" y="1186"/>
      <point x="1069" y="1200"/>
      <point x="1009" y="1200" type="curve" smooth="yes"/>
      <point x="951" y="1200"/>
      <point x="920" y="1186"/>
      <point x="914" y="1151" type="curve" smooth="yes"/>
      <point x="904" y="1089" type="line"/>
      <point x="867" y="1164"/>
      <point x="787" y="1209"/>
      <point x="693" y="1209" type="curve" smooth="yes"/>
    </contour>
    <contour>
      <point x="785" y="1035"/>
      <point x="848" y="982"/>
      <point x="848" y="883" type="curve" smooth="yes"/>
      <point x="848" y="770"/>
      <point x="770" y="640"/>
      <point x="632" y="640" type="curve" smooth="yes"/>
      <point x="551" y="640"/>
      <point x="505" y="694"/>
      <point x="505" y="783" type="curve" smooth="yes"/>
      <point x="505" y="882"/>
      <point x="561" y="1035"/>
      <point x="701" y="1035" type="curve" smooth="yes"/>
    </contour>
  </outline>
</glyph>
<glyph name="registered" format="1">
  <advance width="1228"/>
  <unicode hex="00AE"/>
  <outline>
    <contour>
      <point x="419" y="1334"/>
      <point x="194" y="1037"/>
      <point x="194" y="737" type="curve" smooth="yes"/>
      <point x="194" y="493"/>
      <point x="356" y="308"/>
      <point x="609" y="308" type="curve" smooth="yes"/>
      <point x="956" y="308"/>
      <point x="1180" y="606"/>
      <point x="1180" y="905" type="curve" smooth="yes"/>
      <point x="1180" y="1152"/>
      <point x="1018" y="1334"/>
      <point x="766" y="1334" type="curve" smooth="yes"/>
    </contour>
    <contour>
      <point x="945" y="1206"/>
      <point x="1055" y="1083"/>
      <point x="1055" y="903" type="curve" smooth="yes"/>
      <point x="1055" y="670"/>
      <point x="882" y="436"/>
      <point x="620" y="436" type="curve" smooth="yes"/>
      <point x="429" y="436"/>
      <point x="319" y="562"/>
      <point x="319" y="739" type="curve" smooth="yes"/>
      <point x="319" y="972"/>
      <point x="493" y="1206"/>
      <point x="755" y="1206" type="curve" smooth="yes"/>
    </contour>
    <contour>
      <point x="581" y="1091" type="line" smooth="yes"/>
      <point x="544" y="1091"/>
      <point x="526" y="1076"/>
      <point x="519" y="1038" type="curve" smooth="yes"/>
      <point x="444" y="606" type="line" smooth="yes"/>
      <point x="437" y="567"/>
      <point x="445" y="552"/>
      <point x="504" y="552" type="curve" smooth="yes"/>
      <point x="564" y="552"/>
      <point x="579" y="567"/>
      <point x="585" y="606" type="curve" smooth="yes"/>
      <point x="601" y="696" type="line"/>
      <point x="667" y="696" type="line"/>
      <point x="741" y="572" type="line" smooth="yes"/>
      <point x="760" y="542"/>
      <point x="777" y="537"/>
      <point x="828" y="567" type="curve" smooth="yes"/>
      <point x="879" y="596"/>
      <point x="885" y="618"/>
      <point x="865" y="647" type="curve" smooth="yes"/>
      <point x="810" y="725" type="line"/>
      <point x="902" y="766"/>
      <point x="946" y="835"/>
      <point x="946" y="915" type="curve" smooth="yes"/>
      <point x="946" y="1017"/>
      <point x="883" y="1091"/>
      <point x="761" y="1091" type="curve" smooth="yes"/>
    </contour>
    <contour>
      <point x="776" y="953"/>
      <point x="797" y="932"/>
      <point x="797" y="901" type="curve" smooth="yes"/>
      <point x="797" y="871"/>
      <point x="777" y="825"/>
      <point x="706" y="825" type="curve" smooth="yes"/>
      <point x="624" y="825" type="line"/>
      <point x="646" y="953" type="line"/>
      <point x="736" y="953" type="line" smooth="yes"/>
    </contour>
  </outline>
</glyph>
<glyph name="macron" format="1">
  <advance width="1228"/>
  <unicode hex="00AF"/>
  <outline>
    <contour>
      <point x="487" y="1275" type="line" smooth="yes"/>
      <point x="442" y="1275"/>
      <point x="421" y="1257"/>
      <point x="406" y="1172" type="curve" smooth="yes"/>
      <point x="391" y="1087"/>
      <point x="406" y="1070"/>
      <point x="451" y="1070" type="curve" smooth="yes"/>
      <point x="1013" y="1070" type="line" smooth="yes"/>
      <point x="1058" y="1070"/>
      <point x="1079" y="1087"/>
      <point x="1094" y="1172" type="curve" smooth="yes"/>
      <point x="1109" y="1257"/>
      <point x="1094" y="1275"/>
      <point x="1049" y="1275" type="curve" smooth="yes"/>
    </contour>
  </outline>
</glyph>
<glyph name="degree" format="1">
  <advance width="1228"/>
  <unicode hex="00B0"/>
  <outline>
    <contour>
      <point x="442" y="1209"/>
      <point x="303" y="1051"/>
      <point x="303" y="855" type="curve" smooth="yes"/>
      <point x="303" y="686"/>
      <point x="419" y="565"/>
      <point x="599" y="565" type="curve" smooth="yes"/>
      <point x="814" y="565"/>
      <point x="953" y="723"/>
      <point x="953" y="919" type="curve" smooth="yes"/>
      <point x="953" y="1088"/>
      <point x="837" y="1209"/>
      <point x="657" y="1209" type="curve" smooth="yes"/>
    </contour>
    <contour>
      <point x="702" y="998"/>
      <point x="740" y="959"/>
      <point x="740" y="904" type="curve" smooth="yes"/>
      <point x="740" y="830"/>
      <point x="687" y="776"/>
      <point x="615" y="776" type="curve" smooth="yes"/>
      <point x="554" y="776"/>
      <point x="516" y="815"/>
      <point x="516" y="870" type="curve" smooth="yes"/>
      <point x="516" y="944"/>
      <point x="569" y="998"/>
      <point x="641" y="998" type="curve" smooth="yes"/>
    </contour>
  </outline>
</glyph>
<glyph name="plusminus" format="1">
  <advance width="1228"/>
  <unicode hex="00B1"/>
  <outline>
    <contour>
      <point x="647" y="1126"/>
      <point x="626" y="1108"/>
      <point x="618" y="1063" type="curve" smooth="yes"/>
      <point x="579" y="845" type="line"/>
      <point x="311" y="845" type="line" smooth="yes"/>
      <point x="266" y="845"/>
      <point x="245" y="827"/>
      <point x="229" y="732" type="curve" smooth="yes"/>
      <point x="212" y="637"/>
      <point x="227" y="620"/>
      <point x="272" y="620" type="curve" smooth="yes"/>
      <point x="540" y="620" type="line"/>
      <point x="501" y="401" type="line" smooth="yes"/>
      <point x="493" y="356"/>
      <point x="508" y="338"/>
      <point x="603" y="338" type="curve" smooth="yes"/>
      <point x="698" y="338"/>
      <point x="718" y="356"/>
      <point x="726" y="401" type="curve" smooth="yes"/>
      <point x="765" y="620" type="line"/>
      <point x="1034" y="620" type="line" smooth="yes"/>
      <point x="1079" y="620"/>
      <point x="1100" y="637"/>
      <point x="1117" y="732" type="curve" smooth="yes"/>
      <point x="1133" y="827"/>
      <point x="1118" y="845"/>
      <point x="1073" y="845" type="curve" smooth="yes"/>
      <point x="804" y="845" type="line"/>
      <point x="843" y="1063" type="line" smooth="yes"/>
      <point x="851" y="1108"/>
      <point x="837" y="1126"/>
      <point x="742" y="1126" type="curve" smooth="yes"/>
    </contour>
    <contour>
      <point x="202" y="225" type="line" smooth="yes"/>
      <point x="157" y="225"/>
      <point x="136" y="207"/>
      <point x="119" y="112" type="curve" smooth="yes"/>
      <point x="102" y="17"/>
      <point x="118" y="0"/>
      <point x="163" y="0" type="curve" smooth="yes"/>
      <point x="925" y="0" type="line" smooth="yes"/>
      <point x="970" y="0"/>
      <point x="990" y="17"/>
      <point x="1007" y="112" type="curve" smooth="yes"/>
      <point x="1024" y="207"/>
      <point x="1009" y="225"/>
      <point x="964" y="225" type="curve" smooth="yes"/>
    </contour>
  </outline>
</glyph>
<glyph name="threesuperior" format="1">
  <advance width="1228"/>
  <unicode hex="00B3"/>
  <outline>
    <contour>
      <point x="668" y="1334"/>
      <point x="564" y="1315"/>
      <point x="472" y="1280" type="curve" smooth="yes"/>
      <point x="450" y="1272"/>
      <point x="437" y="1255"/>
      <point x="433" y="1235" type="curve" smooth="yes"/>
      <point x="405" y="1077" type="line" smooth="yes"/>
      <point x="400" y="1045"/>
      <point x="426" y="1029"/>
      <point x="496" y="1029" type="curve" smooth="yes"/>
      <point x="566" y="1029"/>
      <point x="585" y="1045"/>
      <point x="590" y="1077" type="curve" smooth="yes"/>
      <point x="601" y="1135" type="line"/>
      <point x="650" y="1152"/>
      <point x="700" y="1161"/>
      <point x="743" y="1161" type="curve" smooth="yes"/>
      <point x="823" y="1161"/>
      <point x="860" y="1133"/>
      <point x="860" y="1086" type="curve" smooth="yes"/>
      <point x="860" y="1035"/>
      <point x="824" y="983"/>
      <point x="719" y="983" type="curve" smooth="yes"/>
      <point x="645" y="983" type="line" smooth="yes"/>
      <point x="614" y="983"/>
      <point x="593" y="961"/>
      <point x="582" y="897" type="curve" smooth="yes"/>
      <point x="571" y="833"/>
      <point x="584" y="811"/>
      <point x="615" y="811" type="curve" smooth="yes"/>
      <point x="708" y="811" type="line" smooth="yes"/>
      <point x="769" y="811"/>
      <point x="801" y="787"/>
      <point x="801" y="746" type="curve" smooth="yes"/>
      <point x="801" y="681"/>
      <point x="756" y="638"/>
      <point x="636" y="638" type="curve" smooth="yes"/>
      <point x="560" y="638"/>
      <point x="476" y="662"/>
      <point x="413" y="690" type="curve" smooth="yes"/>
      <point x="390" y="700"/>
      <point x="357" y="677"/>
      <point x="337" y="623" type="curve" smooth="yes"/>
      <point x="316" y="567"/>
      <point x="323" y="533"/>
      <point x="355" y="519" type="curve" smooth="yes"/>
      <point x="424" y="487"/>
      <point x="535" y="465"/>
      <point x="634" y="465" type="curve" smooth="yes"/>
      <point x="935" y="465"/>
      <point x="1010" y="614"/>
      <point x="1010" y="739" type="curve" smooth="yes"/>
      <point x="1010" y="811"/>
      <point x="971" y="867"/>
      <point x="907" y="897" type="curve"/>
      <point x="1008" y="938"/>
      <point x="1063" y="1008"/>
      <point x="1063" y="1112" type="curve" smooth="yes"/>
      <point x="1063" y="1243"/>
      <point x="961" y="1334"/>
      <point x="767" y="1334" type="curve" smooth="yes"/>
    </contour>
  </outline>
</glyph>
<glyph name="onesuperior" format="1">
  <advance width="1228"/>
  <unicode hex="00B9"/>
  <outline>
    <contour>
      <point x="457" y="1175" type="line" smooth="yes"/>
      <point x="413" y="1155"/>
      <point x="406" y="1127"/>
      <point x="428" y="1072" type="curve" smooth="yes"/>
      <point x="453" y="1011"/>
      <point x="479" y="1002"/>
      <point x="516" y="1020" type="curve" smooth="yes"/>
      <point x="795" y="1152" type="line"/>
      <point x="687" y="1220" type="line"/>
      <point x="587" y="653" type="line"/>
      <point x="409" y="653" type="line" smooth="yes"/>
      <point x="372" y="653"/>
      <point x="353" y="627"/>
      <point x="343" y="568" type="curve" smooth="yes"/>
      <point x="332" y="508"/>
      <point x="341" y="483"/>
      <point x="379" y="483" type="curve" smooth="yes"/>
      <point x="943" y="483" type="line" smooth="yes"/>
      <point x="980" y="483"/>
      <point x="999" y="508"/>
      <point x="1010" y="568" type="curve" smooth="yes"/>
      <point x="1020" y="627"/>
      <point x="1010" y="653"/>
      <point x="973" y="653" type="curve" smooth="yes"/>
      <point x="782" y="653" type="line"/>
      <point x="891" y="1275" type="line" smooth="yes"/>
      <point x="901" y="1330"/>
      <point x="842" y="1346"/>
      <point x="798" y="1326" type="curve" smooth="yes"/>
    </contour>
  </outline>
</glyph>
<glyph name="ordmasculine" format="1">
  <advance width="1228"/>
  <unicode hex="00BA"/>
  <outline>
    <contour>
      <point x="445" y="1209"/>
      <point x="308" y="982"/>
      <point x="308" y="780" type="curve" smooth="yes"/>
      <point x="308" y="596"/>
      <point x="431" y="465"/>
      <point x="638" y="465" type="curve" smooth="yes"/>
      <point x="946" y="465"/>
      <point x="1075" y="701"/>
      <point x="1075" y="894" type="curve" smooth="yes"/>
      <point x="1075" y="1078"/>
      <point x="951" y="1209"/>
      <point x="745" y="1209" type="curve" smooth="yes"/>
    </contour>
    <contour>
      <point x="816" y="1035"/>
      <point x="869" y="976"/>
      <point x="869" y="883" type="curve" smooth="yes"/>
      <point x="869" y="759"/>
      <point x="791" y="640"/>
      <point x="657" y="640" type="curve" smooth="yes"/>
      <point x="567" y="640"/>
      <point x="513" y="697"/>
      <point x="513" y="790" type="curve" smooth="yes"/>
      <point x="513" y="915"/>
      <point x="592" y="1035"/>
      <point x="726" y="1035" type="curve" smooth="yes"/>
    </contour>
  </outline>
</glyph>
<glyph name="onehalf" format="1">
  <advance width="1228"/>
  <unicode hex="00BD"/>
  <outline>
    <contour>
      <point x="907" y="494"/>
      <point x="818" y="477"/>
      <point x="738" y="440" type="curve" smooth="yes"/>
      <point x="719" y="432"/>
      <point x="708" y="419"/>
      <point x="705" y="403" type="curve" smooth="yes"/>
      <point x="678" y="254" type="line" smooth="yes"/>
      <point x="673" y="228"/>
      <point x="696" y="214"/>
      <point x="754" y="214" type="curve" smooth="yes"/>
      <point x="813" y="214"/>
      <point x="828" y="228"/>
      <point x="833" y="254" type="curve" smooth="yes"/>
      <point x="846" y="328" type="line"/>
      <point x="881" y="342"/>
      <point x="923" y="349"/>
      <point x="960" y="349" type="curve" smooth="yes"/>
      <point x="1014" y="349"/>
      <point x="1043" y="319"/>
      <point x="1043" y="275" type="curve" smooth="yes"/>
      <point x="1043" y="224"/>
      <point x="1012" y="195"/>
      <point x="931" y="138" type="curve" smooth="yes"/>
      <point x="641" y="-64" type="line" smooth="yes"/>
      <point x="623" y="-77"/>
      <point x="608" y="-99"/>
      <point x="602" y="-133" type="curve" smooth="yes"/>
      <point x="592" y="-191"/>
      <point x="606" y="-216"/>
      <point x="632" y="-216" type="curve" smooth="yes"/>
      <point x="1129" y="-216" type="line" smooth="yes"/>
      <point x="1157" y="-216"/>
      <point x="1169" y="-205"/>
      <point x="1174" y="-178" type="curve" smooth="yes"/>
      <point x="1199" y="-36" type="line" smooth="yes"/>
      <point x="1204" y="-9"/>
      <point x="1182" y="4"/>
      <point x="1123" y="4" type="curve" smooth="yes"/>
      <point x="1065" y="4"/>
      <point x="1049" y="-9"/>
      <point x="1045" y="-36" type="curve" smooth="yes"/>
      <point x="1038" y="-74" type="line"/>
      <point x="855" y="-74" type="line"/>
      <point x="1027" y="43" type="line" smooth="yes"/>
      <point x="1142" y="122"/>
      <point x="1214" y="182"/>
      <point x="1214" y="293" type="curve" smooth="yes"/>
      <point x="1214" y="411"/>
      <point x="1133" y="494"/>
      <point x="986" y="494" type="curve" smooth="yes"/>
    </contour>
    <contour>
      <point x="91" y="369" type="line" smooth="yes"/>
      <point x="61" y="353"/>
      <point x="58" y="326"/>
      <point x="80" y="280" type="curve" smooth="yes"/>
      <point x="102" y="234"/>
      <point x="124" y="228"/>
      <point x="149" y="240" type="curve" smooth="yes"/>
      <point x="1178" y="761" type="line" smooth="yes"/>
      <point x="1208" y="777"/>
      <point x="1211" y="804"/>
      <point x="1189" y="850" type="curve" smooth="yes"/>
      <point x="1167" y="896"/>
      <point x="1145" y="902"/>
      <point x="1120" y="890" type="curve" smooth="yes"/>
    </contour>
    <contour>
      <point x="135" y="1261" type="line" smooth="yes"/>
      <point x="98" y="1244"/>
      <point x="92" y="1221"/>
      <point x="110" y="1175" type="curve" smooth="yes"/>
      <point x="131" y="1124"/>
      <point x="153" y="1117"/>
      <point x="184" y="1132" type="curve" smooth="yes"/>
      <point x="417" y="1242" type="line"/>
      <point x="327" y="1298" type="line"/>
      <point x="243" y="826" type="line"/>
      <point x="95" y="826" type="line" smooth="yes"/>
      <point x="64" y="826"/>
      <point x="48" y="804"/>
      <point x="39" y="755" type="curve" smooth="yes"/>
      <point x="30" y="705"/>
      <point x="38" y="684"/>
      <point x="69" y="684" type="curve" smooth="yes"/>
      <point x="540" y="684" type="line" smooth="yes"/>
      <point x="571" y="684"/>
      <point x="587" y="705"/>
      <point x="596" y="755" type="curve" smooth="yes"/>
      <point x="605" y="804"/>
      <point x="596" y="826"/>
      <point x="565" y="826" type="curve" smooth="yes"/>
      <point x="406" y="826" type="line"/>
      <point x="497" y="1344" type="line" smooth="yes"/>
      <point x="505" y="1390"/>
      <point x="456" y="1404"/>
      <point x="419" y="1387" type="curve" smooth="yes"/>
    </contour>
  </outline>
</glyph>
<glyph name="threequarters" format="1">
  <advance width="1228"/>
  <unicode hex="00BE"/>
  <outline>
    <contour>
      <point x="331" y="1394"/>
      <point x="244" y="1378"/>
      <point x="167" y="1349" type="curve" smooth="yes"/>
      <point x="149" y="1342"/>
      <point x="138" y="1328"/>
      <point x="135" y="1311" type="curve" smooth="yes"/>
      <point x="111" y="1179" type="line" smooth="yes"/>
      <point x="107" y="1153"/>
      <point x="129" y="1139"/>
      <point x="187" y="1139" type="curve" smooth="yes"/>
      <point x="246" y="1139"/>
      <point x="261" y="1153"/>
      <point x="266" y="1179" type="curve" smooth="yes"/>
      <point x="275" y="1228" type="line"/>
      <point x="316" y="1242"/>
      <point x="357" y="1249"/>
      <point x="393" y="1249" type="curve" smooth="yes"/>
      <point x="460" y="1249"/>
      <point x="491" y="1226"/>
      <point x="491" y="1187" type="curve" smooth="yes"/>
      <point x="491" y="1144"/>
      <point x="461" y="1101"/>
      <point x="373" y="1101" type="curve" smooth="yes"/>
      <point x="312" y="1101" type="line" smooth="yes"/>
      <point x="286" y="1101"/>
      <point x="268" y="1082"/>
      <point x="259" y="1029" type="curve" smooth="yes"/>
      <point x="250" y="976"/>
      <point x="261" y="957"/>
      <point x="287" y="957" type="curve" smooth="yes"/>
      <point x="364" y="957" type="line" smooth="yes"/>
      <point x="415" y="957"/>
      <point x="442" y="937"/>
      <point x="442" y="903" type="curve" smooth="yes"/>
      <point x="442" y="849"/>
      <point x="404" y="813"/>
      <point x="304" y="813" type="curve" smooth="yes"/>
      <point x="241" y="813"/>
      <point x="170" y="833"/>
      <point x="118" y="856" type="curve" smooth="yes"/>
      <point x="99" y="865"/>
      <point x="71" y="846"/>
      <point x="54" y="801" type="curve" smooth="yes"/>
      <point x="37" y="754"/>
      <point x="43" y="726"/>
      <point x="69" y="714" type="curve" smooth="yes"/>
      <point x="127" y="687"/>
      <point x="220" y="669"/>
      <point x="302" y="669" type="curve" smooth="yes"/>
      <point x="554" y="669"/>
      <point x="616" y="793"/>
      <point x="616" y="897" type="curve" smooth="yes"/>
      <point x="616" y="957"/>
      <point x="584" y="1004"/>
      <point x="530" y="1029" type="curve"/>
      <point x="615" y="1063"/>
      <point x="661" y="1122"/>
      <point x="661" y="1208" type="curve" smooth="yes"/>
      <point x="661" y="1318"/>
      <point x="575" y="1394"/>
      <point x="413" y="1394" type="curve" smooth="yes"/>
    </contour>
    <contour>
      <point x="1033" y="503"/>
      <point x="997" y="490"/>
      <point x="975" y="466" type="curve" smooth="yes"/>
      <point x="594" y="83" type="line" smooth="yes"/>
      <point x="577" y="66"/>
      <point x="570" y="51"/>
      <point x="570" y="30" type="curve" smooth="yes"/>
      <point x="570" y="-17"/>
      <point x="590" y="-63"/>
      <point x="617" y="-63" type="curve" smooth="yes"/>
      <point x="908" y="-63" type="line"/>
      <point x="887" y="-184" type="line" smooth="yes"/>
      <point x="882" y="-210"/>
      <point x="905" y="-224"/>
      <point x="971" y="-224" type="curve" smooth="yes"/>
      <point x="1030" y="-224"/>
      <point x="1047" y="-210"/>
      <point x="1052" y="-184" type="curve" smooth="yes"/>
      <point x="1074" y="-63" type="line"/>
      <point x="1148" y="-63" type="line" smooth="yes"/>
      <point x="1179" y="-63"/>
      <point x="1196" y="-42"/>
      <point x="1205" y="8" type="curve" smooth="yes"/>
      <point x="1213" y="57"/>
      <point x="1205" y="79"/>
      <point x="1174" y="79" type="curve" smooth="yes"/>
      <point x="1098" y="79" type="line"/>
      <point x="1165" y="457" type="line" smooth="yes"/>
      <point x="1170" y="484"/>
      <point x="1142" y="503"/>
      <point x="1081" y="503" type="curve" smooth="yes"/>
    </contour>
    <contour>
      <point x="933" y="79" type="line"/>
      <point x="783" y="79" type="line"/>
      <point x="985" y="291" type="line"/>
    </contour>
    <contour>
      <point x="91" y="329" type="line" smooth="yes"/>
      <point x="61" y="313"/>
      <point x="58" y="286"/>
      <point x="80" y="240" type="curve" smooth="yes"/>
      <point x="102" y="194"/>
      <point x="124" y="188"/>
      <point x="149" y="200" type="curve" smooth="yes"/>
      <point x="1178" y="721" type="line" smooth="yes"/>
      <point x="1208" y="737"/>
      <point x="1211" y="764"/>
      <point x="1189" y="810" type="curve" smooth="yes"/>
      <point x="1167" y="856"/>
      <point x="1145" y="862"/>
      <point x="1120" y="850" type="curve" smooth="yes"/>
    </contour>
  </outline>
</glyph>
<glyph name="AE" format="1">
  <advance width="1228"/>
  <unicode hex="00C6"/>
  <outline>
    <contour>
      <point x="322" y="1187" type="line" smooth="yes"/>
      <point x="277" y="1187"/>
      <point x="256" y="1169"/>
      <point x="241" y="1084" type="curve" smooth="yes"/>
      <point x="226" y="999"/>
      <point x="241" y="982"/>
      <point x="286" y="982" type="curve" smooth="yes"/>
      <point x="388" y="982" type="line"/>
      <point x="52" y="205" type="line"/>
      <point x="-1" y="205" type="line" smooth="yes"/>
      <point x="-46" y="205"/>
      <point x="-68" y="187"/>
      <point x="-82" y="102" type="curve" smooth="yes"/>
      <point x="-97" y="17"/>
      <point x="-82" y="0"/>
      <point x="-37" y="0" type="curve" smooth="yes"/>
      <point x="292" y="0" type="line" smooth="yes"/>
      <point x="337" y="0"/>
      <point x="357" y="17"/>
      <point x="372" y="102" type="curve" smooth="yes"/>
      <point x="387" y="187"/>
      <point x="373" y="205"/>
      <point x="328" y="205" type="curve" smooth="yes"/>
      <point x="287" y="205" type="line"/>
      <point x="341" y="330" type="line"/>
      <point x="538" y="330" type="line"/>
      <point x="491" y="65" type="line" smooth="yes"/>
      <point x="483" y="19"/>
      <point x="499" y="0"/>
      <point x="545" y="0" type="curve" smooth="yes"/>
      <point x="1045" y="0" type="line" smooth="yes"/>
      <point x="1091" y="0"/>
      <point x="1113" y="19"/>
      <point x="1121" y="65" type="curve" smooth="yes"/>
      <point x="1178" y="387" type="line" smooth="yes"/>
      <point x="1186" y="432"/>
      <point x="1170" y="450"/>
      <point x="1085" y="450" type="curve" smooth="yes"/>
      <point x="1000" y="450"/>
      <point x="966" y="432"/>
      <point x="958" y="387" type="curve" smooth="yes"/>
      <point x="927" y="215" type="line"/>
      <point x="747" y="215" type="line"/>
      <point x="800" y="514" type="line"/>
      <point x="914" y="514" type="line" smooth="yes"/>
      <point x="959" y="514"/>
      <point x="981" y="536"/>
      <point x="996" y="621" type="curve" smooth="yes"/>
      <point x="1011" y="706"/>
      <point x="997" y="729"/>
      <point x="952" y="729" type="curve" smooth="yes"/>
      <point x="838" y="729" type="line"/>
      <point x="881" y="972" type="line"/>
      <point x="1051" y="972" type="line"/>
      <point x="1029" y="850" type="line" smooth="yes"/>
      <point x="1021" y="805"/>
      <point x="1036" y="787"/>
      <point x="1116" y="787" type="curve" smooth="yes"/>
      <point x="1196" y="787"/>
      <point x="1231" y="805"/>
      <point x="1239" y="850" type="curve" smooth="yes"/>
      <point x="1287" y="1122" type="line" smooth="yes"/>
      <point x="1295" y="1168"/>
      <point x="1280" y="1187"/>
      <point x="1234" y="1187" type="curve" smooth="yes"/>
    </contour>
    <contour>
      <point x="576" y="545" type="line"/>
      <point x="431" y="545" type="line"/>
      <point x="599" y="972" type="line"/>
      <point x="651" y="972" type="line"/>
    </contour>
  </outline>
</glyph>
<glyph name="Oslash" format="1">
  <advance width="1228"/>
  <unicode hex="00D8"/>
  <outline>
    <contour>
      <point x="1152" y="1274"/>
      <point x="1127" y="1270"/>
      <point x="1094" y="1233" type="curve" smooth="yes"/>
      <point x="1008" y="1135" type="line"/>
      <point x="934" y="1183"/>
      <point x="843" y="1209"/>
      <point x="737" y="1209" type="curve" smooth="yes"/>
      <point x="525" y="1209"/>
      <point x="350" y="1120"/>
      <point x="235" y="956" type="curve" smooth="yes"/>
      <point x="138" y="818"/>
      <point x="88" y="629"/>
      <point x="88" y="471" type="curve" smooth="yes"/>
      <point x="88" y="354"/>
      <point x="116" y="253"/>
      <point x="168" y="174" type="curve"/>
      <point x="71" y="63" type="line" smooth="yes"/>
      <point x="38" y="26"/>
      <point x="39" y="1"/>
      <point x="93" y="-42" type="curve" smooth="yes"/>
      <point x="147" y="-85"/>
      <point x="172" y="-81"/>
      <point x="205" y="-44" type="curve" smooth="yes"/>
      <point x="289" y="52" type="line"/>
      <point x="363" y="4"/>
      <point x="454" y="-22"/>
      <point x="560" y="-22" type="curve" smooth="yes"/>
      <point x="772" y="-22"/>
      <point x="947" y="67"/>
      <point x="1062" y="231" type="curve" smooth="yes"/>
      <point x="1159" y="369"/>
      <point x="1209" y="558"/>
      <point x="1209" y="716" type="curve" smooth="yes"/>
      <point x="1209" y="833"/>
      <point x="1181" y="934"/>
      <point x="1129" y="1013" type="curve"/>
      <point x="1228" y="1126" type="line" smooth="yes"/>
      <point x="1261" y="1163"/>
      <point x="1259" y="1188"/>
      <point x="1206" y="1231" type="curve" smooth="yes"/>
    </contour>
    <contour>
      <point x="942" y="772"/>
      <point x="944" y="747"/>
      <point x="944" y="720" type="curve" smooth="yes"/>
      <point x="944" y="596"/>
      <point x="907" y="439"/>
      <point x="835" y="338" type="curve" smooth="yes"/>
      <point x="773" y="252"/>
      <point x="688" y="205"/>
      <point x="580" y="205" type="curve" smooth="yes"/>
      <point x="528" y="205"/>
      <point x="485" y="216"/>
      <point x="451" y="237" type="curve"/>
      <point x="938" y="795" type="line"/>
    </contour>
    <contour>
      <point x="769" y="982"/>
      <point x="812" y="971"/>
      <point x="846" y="950" type="curve"/>
      <point x="359" y="392" type="line"/>
      <point x="355" y="415"/>
      <point x="353" y="440"/>
      <point x="353" y="467" type="curve" smooth="yes"/>
      <point x="353" y="591"/>
      <point x="390" y="748"/>
      <point x="462" y="849" type="curve" smooth="yes"/>
      <point x="524" y="935"/>
      <point x="609" y="982"/>
      <point x="717" y="982" type="curve" smooth="yes"/>
    </contour>
  </outline>
</glyph>
<glyph name="Thorn" format="1">
  <advance width="1228"/>
  <unicode hex="00DE"/>
  <outline>
    <contour>
      <point x="322" y="1187" type="line" smooth="yes"/>
      <point x="277" y="1187"/>
      <point x="256" y="1169"/>
      <point x="241" y="1084" type="curve" smooth="yes"/>
      <point x="226" y="999"/>
      <point x="241" y="982"/>
      <point x="286" y="982" type="curve" smooth="yes"/>
      <point x="433" y="982" type="line"/>
      <point x="296" y="205" type="line"/>
      <point x="149" y="205" type="line" smooth="yes"/>
      <point x="104" y="205"/>
      <point x="82" y="187"/>
      <point x="67" y="102" type="curve" smooth="yes"/>
      <point x="52" y="17"/>
      <point x="68" y="0"/>
      <point x="113" y="0" type="curve" smooth="yes"/>
      <point x="697" y="0" type="line" smooth="yes"/>
      <point x="742" y="0"/>
      <point x="762" y="17"/>
      <point x="777" y="102" type="curve" smooth="yes"/>
      <point x="792" y="187"/>
      <point x="778" y="205"/>
      <point x="733" y="205" type="curve" smooth="yes"/>
      <point x="546" y="205" type="line"/>
      <point x="563" y="301" type="line"/>
      <point x="703" y="301" type="line" smooth="yes"/>
      <point x="860" y="301"/>
      <point x="969" y="338"/>
      <point x="1037" y="407" type="curve" smooth="yes"/>
      <point x="1099" y="470"/>
      <point x="1123" y="562"/>
      <point x="1123" y="639" type="curve" smooth="yes"/>
      <point x="1123" y="783"/>
      <point x="1023" y="886"/>
      <point x="805" y="886" type="curve" smooth="yes"/>
      <point x="666" y="886" type="line"/>
      <point x="683" y="982" type="line"/>
      <point x="870" y="982" type="line" smooth="yes"/>
      <point x="915" y="982"/>
      <point x="936" y="999"/>
      <point x="951" y="1084" type="curve" smooth="yes"/>
      <point x="966" y="1169"/>
      <point x="951" y="1187"/>
      <point x="906" y="1187" type="curve" smooth="yes"/>
    </contour>
    <contour>
      <point x="825" y="691"/>
      <point x="865" y="669"/>
      <point x="865" y="617" type="curve" smooth="yes"/>
      <point x="865" y="588"/>
      <point x="855" y="555"/>
      <point x="836" y="535" type="curve" smooth="yes"/>
      <point x="811" y="508"/>
      <point x="769" y="496"/>
      <point x="706" y="496" type="curve" smooth="yes"/>
      <point x="597" y="496" type="line"/>
      <point x="631" y="691" type="line"/>
      <point x="740" y="691" type="line" smooth="yes"/>
    </contour>
  </outline>
</glyph>
<glyph name="Aogonek" format="1">
  <advance width="1228"/>
  <unicode hex="0104"/>
  <outline>
    <contour>
      <point x="362" y="1187" type="line" smooth="yes"/>
      <point x="317" y="1187"/>
      <point x="296" y="1170"/>
      <point x="281" y="1085" type="curve" smooth="yes"/>
      <point x="266" y="1000"/>
      <point x="281" y="982"/>
      <point x="326" y="982" type="curve" smooth="yes"/>
      <point x="489" y="982" type="line"/>
      <point x="99" y="205" type="line"/>
      <point x="19" y="205" type="line" smooth="yes"/>
      <point x="-26" y="205"/>
      <point x="-47" y="188"/>
      <point x="-62" y="103" type="curve" smooth="yes"/>
      <point x="-76" y="18"/>
      <point x="-62" y="0"/>
      <point x="-17" y="0" type="curve" smooth="yes"/>
      <point x="387" y="0" type="line" smooth="yes"/>
      <point x="432" y="0"/>
      <point x="453" y="18"/>
      <point x="468" y="103" type="curve" smooth="yes"/>
      <point x="483" y="188"/>
      <point x="468" y="205"/>
      <point x="423" y="205" type="curve" smooth="yes"/>
      <point x="353" y="205" type="line"/>
      <point x="423" y="350" type="line"/>
      <point x="787" y="350" type="line"/>
      <point x="807" y="205" type="line"/>
      <point x="717" y="205" type="line" smooth="yes"/>
      <point x="672" y="205"/>
      <point x="651" y="188"/>
      <point x="636" y="103" type="curve" smooth="yes"/>
      <point x="621" y="18"/>
      <point x="636" y="0"/>
      <point x="681" y="0" type="curve" smooth="yes"/>
      <point x="821" y="0" type="line"/>
      <point x="689" y="-77"/>
      <point x="589" y="-173"/>
      <point x="589" y="-300" type="curve" smooth="yes"/>
      <point x="589" y="-408"/>
      <point x="672" y="-472"/>
      <point x="811" y="-472" type="curve" smooth="yes"/>
      <point x="890" y="-472"/>
      <point x="982" y="-457"/>
      <point x="1048" y="-436" type="curve" smooth="yes"/>
      <point x="1078" y="-427"/>
      <point x="1094" y="-400"/>
      <point x="1088" y="-350" type="curve" smooth="yes"/>
      <point x="1082" y="-302"/>
      <point x="1063" y="-280"/>
      <point x="1036" y="-285" type="curve" smooth="yes"/>
      <point x="996" y="-292"/>
      <point x="956" y="-298"/>
      <point x="917" y="-298" type="curve" smooth="yes"/>
      <point x="868" y="-298"/>
      <point x="839" y="-280"/>
      <point x="839" y="-235" type="curve" smooth="yes"/>
      <point x="839" y="-166"/>
      <point x="925" y="-85"/>
      <point x="1040" y="0" type="curve"/>
      <point x="1105" y="0" type="line" smooth="yes"/>
      <point x="1150" y="0"/>
      <point x="1171" y="18"/>
      <point x="1186" y="103" type="curve" smooth="yes"/>
      <point x="1201" y="188"/>
      <point x="1186" y="205"/>
      <point x="1141" y="205" type="curve" smooth="yes"/>
      <point x="1050" y="205" type="line"/>
      <point x="921" y="1122" type="line" smooth="yes"/>
      <point x="914" y="1168"/>
      <point x="885" y="1187"/>
      <point x="832" y="1187" type="curve" smooth="yes"/>
    </contour>
    <contour>
      <point x="766" y="555" type="line"/>
      <point x="517" y="555" type="line"/>
      <point x="716" y="982" type="line"/>
      <point x="722" y="982" type="line"/>
    </contour>
  </outline>
</glyph>
<glyph name="hbar" format="1">
  <advance width="1228"/>
  <unicode hex="0127"/>
  <outline>
    <contour>
      <point x="431" y="1312" type="line" smooth="yes"/>
      <point x="386" y="1312"/>
      <point x="365" y="1294"/>
      <point x="357" y="1249" type="curve" smooth="yes"/>
      <point x="148" y="63" type="line" smooth="yes"/>
      <point x="140" y="18"/>
      <point x="155" y="0"/>
      <point x="200" y="0" type="curve" smooth="yes"/>
      <point x="324" y="0" type="line" smooth="yes"/>
      <point x="369" y="0"/>
      <point x="390" y="18"/>
      <point x="398" y="63" type="curve" smooth="yes"/>
      <point x="431" y="258" type="line" smooth="yes"/>
      <point x="463" y="446"/>
      <point x="601" y="619"/>
      <point x="720" y="619" type="curve" smooth="yes"/>
      <point x="789" y="619"/>
      <point x="815" y="582"/>
      <point x="815" y="519" type="curve" smooth="yes"/>
      <point x="815" y="501"/>
      <point x="813" y="482"/>
      <point x="809" y="461" type="curve" smooth="yes"/>
      <point x="740" y="63" type="line" smooth="yes"/>
      <point x="732" y="19"/>
      <point x="747" y="0"/>
      <point x="792" y="0" type="curve" smooth="yes"/>
      <point x="1056" y="0" type="line" smooth="yes"/>
      <point x="1101" y="0"/>
      <point x="1121" y="17"/>
      <point x="1136" y="102" type="curve" smooth="yes"/>
      <point x="1151" y="187"/>
      <point x="1137" y="205"/>
      <point x="1092" y="205" type="curve" smooth="yes"/>
      <point x="1015" y="205" type="line"/>
      <point x="1066" y="500" type="line" smooth="yes"/>
      <point x="1070" y="525"/>
      <point x="1073" y="552"/>
      <point x="1073" y="576" type="curve" smooth="yes"/>
      <point x="1073" y="736"/>
      <point x="975" y="846"/>
      <point x="815" y="846" type="curve" smooth="yes"/>
      <point x="708" y="846"/>
      <point x="606" y="791"/>
      <point x="505" y="674" type="curve"/>
      <point x="607" y="1249" type="line" smooth="yes"/>
      <point x="615" y="1294"/>
      <point x="600" y="1312"/>
      <point x="555" y="1312" type="curve" smooth="yes"/>
    </contour>
    <contour>
      <point x="226" y="1155" type="line" smooth="yes"/>
      <point x="181" y="1155"/>
      <point x="160" y="1137"/>
      <point x="145" y="1052" type="curve" smooth="yes"/>
      <point x="130" y="967"/>
      <point x="145" y="950"/>
      <point x="190" y="950" type="curve" smooth="yes"/>
      <point x="752" y="950" type="line" smooth="yes"/>
      <point x="797" y="950"/>
      <point x="818" y="967"/>
      <point x="833" y="1052" type="curve" smooth="yes"/>
      <point x="848" y="1137"/>
      <point x="833" y="1155"/>
      <point x="788" y="1155" type="curve" smooth="yes"/>
    </contour>
    <contour>
      <point x="435" y="1312" type="line" smooth="yes"/>
      <point x="390" y="1312"/>
      <point x="369" y="1295"/>
      <point x="354" y="1210" type="curve" smooth="yes"/>
      <point x="339" y="1125"/>
      <point x="354" y="1107"/>
      <point x="399" y="1107" type="curve" smooth="yes"/>
      <point x="485" y="1107" type="line"/>
      <point x="521" y="1312" type="line"/>
    </contour>
  </outline>
</glyph>
<glyph name="IJ" format="1">
  <advance width="1228"/>
  <unicode hex="0132"/>
  <outline>
    <contour>
      <point x="872" y="1187" type="line" smooth="yes"/>
      <point x="827" y="1187"/>
      <point x="806" y="1169"/>
      <point x="791" y="1084" type="curve" smooth="yes"/>
      <point x="776" y="999"/>
      <point x="791" y="982"/>
      <point x="836" y="982" type="curve" smooth="yes"/>
      <point x="992" y="982" type="line"/>
      <point x="874" y="313" type="line" smooth="yes"/>
      <point x="861" y="239"/>
      <point x="832" y="205"/>
      <point x="776" y="205" type="curve" smooth="yes"/>
      <point x="751" y="205"/>
      <point x="728" y="210"/>
      <point x="708" y="222" type="curve"/>
      <point x="745" y="435" type="line" smooth="yes"/>
      <point x="753" y="480"/>
      <point x="732" y="498"/>
      <point x="642" y="498" type="curve" smooth="yes"/>
      <point x="552" y="498"/>
      <point x="513" y="480"/>
      <point x="505" y="435" type="curve" smooth="yes"/>
      <point x="448" y="108" type="line" smooth="yes"/>
      <point x="444" y="85"/>
      <point x="446" y="67"/>
      <point x="458" y="59" type="curve" smooth="yes"/>
      <point x="538" y="7"/>
      <point x="640" y="-22"/>
      <point x="744" y="-22" type="curve" smooth="yes"/>
      <point x="966" y="-22"/>
      <point x="1083" y="82"/>
      <point x="1120" y="293" type="curve" smooth="yes"/>
      <point x="1242" y="982" type="line"/>
      <point x="1288" y="982" type="line" smooth="yes"/>
      <point x="1333" y="982"/>
      <point x="1354" y="999"/>
      <point x="1369" y="1084" type="curve" smooth="yes"/>
      <point x="1384" y="1169"/>
      <point x="1369" y="1187"/>
      <point x="1324" y="1187" type="curve" smooth="yes"/>
    </contour>
    <contour>
      <point x="182" y="1187" type="line" smooth="yes"/>
      <point x="137" y="1187"/>
      <point x="116" y="1169"/>
      <point x="101" y="1084" type="curve" smooth="yes"/>
      <point x="86" y="999"/>
      <point x="101" y="982"/>
      <point x="146" y="982" type="curve" smooth="yes"/>
      <point x="192" y="982" type="line"/>
      <point x="55" y="205" type="line"/>
      <point x="9" y="205" type="line" smooth="yes"/>
      <point x="-36" y="205"/>
      <point x="-58" y="187"/>
      <point x="-73" y="102" type="curve" smooth="yes"/>
      <point x="-88" y="17"/>
      <point x="-72" y="0"/>
      <point x="-27" y="0" type="curve" smooth="yes"/>
      <point x="315" y="0" type="line" smooth="yes"/>
      <point x="360" y="0"/>
      <point x="380" y="17"/>
      <point x="395" y="102" type="curve" smooth="yes"/>
      <point x="410" y="187"/>
      <point x="396" y="205"/>
      <point x="351" y="205" type="curve" smooth="yes"/>
      <point x="305" y="205" type="line"/>
      <point x="442" y="982" type="line"/>
      <point x="488" y="982" type="line" smooth="yes"/>
      <point x="533" y="982"/>
      <point x="554" y="999"/>
      <point x="569" y="1084" type="curve" smooth="yes"/>
      <point x="584" y="1169"/>
      <point x="569" y="1187"/>
      <point x="524" y="1187" type="curve" smooth="yes"/>
    </contour>
  </outline>
</glyph>
<glyph name="ij" format="1">
  <advance width="1228"/>
  <unicode hex="0133"/>
  <outline>
    <contour>
      <point x="782" y="924" type="line" smooth="yes"/>
      <point x="737" y="924"/>
      <point x="716" y="906"/>
      <point x="701" y="821" type="curve" smooth="yes"/>
      <point x="686" y="736"/>
      <point x="701" y="719"/>
      <point x="746" y="719" type="curve" smooth="yes"/>
      <point x="929" y="719" type="line"/>
      <point x="800" y="-17" type="line" smooth="yes"/>
      <point x="780" y="-132"/>
      <point x="723" y="-183"/>
      <point x="641" y="-183" type="curve" smooth="yes"/>
      <point x="589" y="-183"/>
      <point x="525" y="-170"/>
      <point x="463" y="-149" type="curve" smooth="yes"/>
      <point x="423" y="-137"/>
      <point x="389" y="-148"/>
      <point x="359" y="-229" type="curve" smooth="yes"/>
      <point x="327" y="-315"/>
      <point x="344" y="-341"/>
      <point x="387" y="-359" type="curve" smooth="yes"/>
      <point x="466" y="-392"/>
      <point x="556" y="-410"/>
      <point x="643" y="-410" type="curve" smooth="yes"/>
      <point x="875" y="-410"/>
      <point x="1001" y="-289"/>
      <point x="1045" y="-40" type="curve" smooth="yes"/>
      <point x="1204" y="861" type="line" smooth="yes"/>
      <point x="1212" y="906"/>
      <point x="1197" y="924"/>
      <point x="1152" y="924" type="curve" smooth="yes"/>
    </contour>
    <contour>
      <point x="182" y="924" type="line" smooth="yes"/>
      <point x="137" y="924"/>
      <point x="116" y="906"/>
      <point x="101" y="821" type="curve" smooth="yes"/>
      <point x="86" y="736"/>
      <point x="101" y="719"/>
      <point x="146" y="719" type="curve" smooth="yes"/>
      <point x="269" y="719" type="line"/>
      <point x="194" y="288" type="line" smooth="yes"/>
      <point x="189" y="262"/>
      <point x="187" y="237"/>
      <point x="187" y="214" type="curve" smooth="yes"/>
      <point x="187" y="62"/>
      <point x="281" y="-22"/>
      <point x="436" y="-22" type="curve" smooth="yes"/>
      <point x="501" y="-22"/>
      <point x="574" y="-9"/>
      <point x="637" y="14" type="curve" smooth="yes"/>
      <point x="686" y="32"/>
      <point x="701" y="66"/>
      <point x="688" y="146" type="curve" smooth="yes"/>
      <point x="675" y="226"/>
      <point x="644" y="239"/>
      <point x="600" y="225" type="curve" smooth="yes"/>
      <point x="564" y="213"/>
      <point x="526" y="205"/>
      <point x="491" y="205" type="curve" smooth="yes"/>
      <point x="460" y="205"/>
      <point x="441" y="222"/>
      <point x="441" y="260" type="curve" smooth="yes"/>
      <point x="441" y="270"/>
      <point x="442" y="280"/>
      <point x="443" y="286" type="curve" smooth="yes"/>
      <point x="544" y="861" type="line" smooth="yes"/>
      <point x="552" y="906"/>
      <point x="537" y="924"/>
      <point x="492" y="924" type="curve" smooth="yes"/>
    </contour>
    <contour>
      <point x="413" y="1383"/>
      <point x="383" y="1365"/>
      <point x="375" y="1320" type="curve" smooth="yes"/>
      <point x="346" y="1156" type="line" smooth="yes"/>
      <point x="338" y="1111"/>
      <point x="367" y="1093"/>
      <point x="462" y="1093" type="curve" smooth="yes"/>
      <point x="557" y="1093"/>
      <point x="588" y="1111"/>
      <point x="596" y="1156" type="curve" smooth="yes"/>
      <point x="625" y="1320" type="line" smooth="yes"/>
      <point x="633" y="1365"/>
      <point x="603" y="1383"/>
      <point x="508" y="1383" type="curve" smooth="yes"/>
    </contour>
    <contour>
      <point x="1073" y="1383"/>
      <point x="1043" y="1365"/>
      <point x="1035" y="1320" type="curve" smooth="yes"/>
      <point x="1006" y="1156" type="line" smooth="yes"/>
      <point x="998" y="1111"/>
      <point x="1027" y="1093"/>
      <point x="1122" y="1093" type="curve" smooth="yes"/>
      <point x="1217" y="1093"/>
      <point x="1248" y="1111"/>
      <point x="1256" y="1156" type="curve" smooth="yes"/>
      <point x="1285" y="1320" type="line" smooth="yes"/>
      <point x="1293" y="1365"/>
      <point x="1263" y="1383"/>
      <point x="1168" y="1383" type="curve" smooth="yes"/>
    </contour>
  </outline>
</glyph>
<glyph name="Lslash" format="1">
  <advance width="1228"/>
  <unicode hex="0141"/>
  <outline>
    <contour>
      <point x="262" y="1187" type="line" smooth="yes"/>
      <point x="217" y="1187"/>
      <point x="196" y="1169"/>
      <point x="181" y="1084" type="curve" smooth="yes"/>
      <point x="166" y="999"/>
      <point x="181" y="982"/>
      <point x="226" y="982" type="curve" smooth="yes"/>
      <point x="372" y="982" type="line"/>
      <point x="309" y="626" type="line"/>
      <point x="50" y="487" type="line" smooth="yes"/>
      <point x="7" y="464"/>
      <point x="-3" y="439"/>
      <point x="27" y="366" type="curve" smooth="yes"/>
      <point x="58" y="293"/>
      <point x="81" y="288"/>
      <point x="123" y="311" type="curve" smooth="yes"/>
      <point x="267" y="388" type="line"/>
      <point x="235" y="205" type="line"/>
      <point x="89" y="205" type="line" smooth="yes"/>
      <point x="44" y="205"/>
      <point x="22" y="187"/>
      <point x="7" y="102" type="curve" smooth="yes"/>
      <point x="-8" y="17"/>
      <point x="8" y="0"/>
      <point x="53" y="0" type="curve" smooth="yes"/>
      <point x="985" y="0" type="line" smooth="yes"/>
      <point x="1031" y="0"/>
      <point x="1053" y="19"/>
      <point x="1061" y="65" type="curve" smooth="yes"/>
      <point x="1142" y="527" type="line" smooth="yes"/>
      <point x="1150" y="572"/>
      <point x="1131" y="590"/>
      <point x="1036" y="590" type="curve" smooth="yes"/>
      <point x="941" y="590"/>
      <point x="900" y="572"/>
      <point x="892" y="527" type="curve" smooth="yes"/>
      <point x="837" y="215" type="line"/>
      <point x="486" y="215" type="line"/>
      <point x="543" y="536" type="line"/>
      <point x="848" y="700" type="line" smooth="yes"/>
      <point x="890" y="723"/>
      <point x="901" y="747"/>
      <point x="871" y="820" type="curve" smooth="yes"/>
      <point x="840" y="893"/>
      <point x="817" y="899"/>
      <point x="774" y="876" type="curve" smooth="yes"/>
      <point x="585" y="774" type="line"/>
      <point x="622" y="982" type="line"/>
      <point x="840" y="982" type="line" smooth="yes"/>
      <point x="885" y="982"/>
      <point x="906" y="999"/>
      <point x="921" y="1084" type="curve" smooth="yes"/>
      <point x="936" y="1169"/>
      <point x="921" y="1187"/>
      <point x="876" y="1187" type="curve" smooth="yes"/>
    </contour>
  </outline>
</glyph>
<glyph name="eng" format="1">
  <advance width="1228"/>
  <unicode hex="014B"/>
  <outline>
    <contour>
      <point x="724" y="946"/>
      <point x="606" y="878"/>
      <point x="489" y="716" type="curve"/>
      <point x="514" y="861" type="line" smooth="yes"/>
      <point x="522" y="906"/>
      <point x="507" y="924"/>
      <point x="462" y="924" type="curve" smooth="yes"/>
      <point x="218" y="924" type="line" smooth="yes"/>
      <point x="173" y="924"/>
      <point x="152" y="906"/>
      <point x="137" y="821" type="curve" smooth="yes"/>
      <point x="122" y="736"/>
      <point x="137" y="719"/>
      <point x="182" y="719" type="curve" smooth="yes"/>
      <point x="279" y="719" type="line"/>
      <point x="164" y="63" type="line" smooth="yes"/>
      <point x="156" y="18"/>
      <point x="171" y="0"/>
      <point x="216" y="0" type="curve" smooth="yes"/>
      <point x="340" y="0" type="line" smooth="yes"/>
      <point x="385" y="0"/>
      <point x="406" y="18"/>
      <point x="414" y="63" type="curve" smooth="yes"/>
      <point x="461" y="338" type="line" smooth="yes"/>
      <point x="493" y="526"/>
      <point x="635" y="719"/>
      <point x="754" y="719" type="curve" smooth="yes"/>
      <point x="822" y="719"/>
      <point x="849" y="683"/>
      <point x="849" y="621" type="curve" smooth="yes"/>
      <point x="849" y="603"/>
      <point x="847" y="583"/>
      <point x="843" y="561" type="curve" smooth="yes"/>
      <point x="738" y="-39" type="line" smooth="yes"/>
      <point x="721" y="-135"/>
      <point x="668" y="-173"/>
      <point x="585" y="-173" type="curve" smooth="yes"/>
      <point x="548" y="-173"/>
      <point x="494" y="-162"/>
      <point x="449" y="-147" type="curve" smooth="yes"/>
      <point x="410" y="-134"/>
      <point x="379" y="-153"/>
      <point x="348" y="-235" type="curve" smooth="yes"/>
      <point x="316" y="-319"/>
      <point x="327" y="-353"/>
      <point x="368" y="-370" type="curve" smooth="yes"/>
      <point x="432" y="-396"/>
      <point x="505" y="-410"/>
      <point x="570" y="-410" type="curve" smooth="yes"/>
      <point x="809" y="-410"/>
      <point x="943" y="-292"/>
      <point x="985" y="-55" type="curve" smooth="yes"/>
      <point x="1100" y="600" type="line" smooth="yes"/>
      <point x="1104" y="625"/>
      <point x="1107" y="651"/>
      <point x="1107" y="675" type="curve" smooth="yes"/>
      <point x="1107" y="835"/>
      <point x="1009" y="946"/>
      <point x="849" y="946" type="curve" smooth="yes"/>
    </contour>
  </outline>
</glyph>
<glyph name="oe" format="1">
  <advance width="1228"/>
  <unicode hex="0153"/>
  <outline>
    <contour>
      <point x="841" y="946"/>
      <point x="755" y="908"/>
      <point x="677" y="836" type="curve"/>
      <point x="637" y="903"/>
      <point x="563" y="946"/>
      <point x="460" y="946" type="curve" smooth="yes"/>
      <point x="342" y="946"/>
      <point x="252" y="903"/>
      <point x="185" y="827" type="curve" smooth="yes"/>
      <point x="80" y="709"/>
      <point x="28" y="489"/>
      <point x="28" y="333" type="curve" smooth="yes"/>
      <point x="28" y="127"/>
      <point x="119" y="-22"/>
      <point x="330" y="-22" type="curve" smooth="yes"/>
      <point x="434" y="-22"/>
      <point x="516" y="17"/>
      <point x="580" y="84" type="curve"/>
      <point x="621" y="17"/>
      <point x="688" y="-22"/>
      <point x="789" y="-22" type="curve" smooth="yes"/>
      <point x="896" y="-22"/>
      <point x="996" y="10"/>
      <point x="1093" y="49" type="curve" smooth="yes"/>
      <point x="1143" y="69"/>
      <point x="1154" y="99"/>
      <point x="1132" y="179" type="curve" smooth="yes"/>
      <point x="1110" y="259"/>
      <point x="1086" y="273"/>
      <point x="1040" y="255" type="curve" smooth="yes"/>
      <point x="960" y="224"/>
      <point x="899" y="205"/>
      <point x="824" y="205" type="curve" smooth="yes"/>
      <point x="756" y="205"/>
      <point x="717" y="249"/>
      <point x="717" y="332" type="curve" smooth="yes"/>
      <point x="717" y="346"/>
      <point x="718" y="361"/>
      <point x="719" y="370" type="curve"/>
      <point x="1125" y="370" type="line" smooth="yes"/>
      <point x="1170" y="370"/>
      <point x="1191" y="387"/>
      <point x="1199" y="432" type="curve" smooth="yes"/>
      <point x="1210" y="497"/>
      <point x="1217" y="558"/>
      <point x="1217" y="614" type="curve" smooth="yes"/>
      <point x="1217" y="813"/>
      <point x="1138" y="946"/>
      <point x="934" y="946" type="curve" smooth="yes"/>
    </contour>
    <contour>
      <point x="500" y="719"/>
      <point x="528" y="679"/>
      <point x="528" y="594" type="curve" smooth="yes"/>
      <point x="528" y="504"/>
      <point x="496" y="333"/>
      <point x="450" y="264" type="curve" smooth="yes"/>
      <point x="424" y="224"/>
      <point x="392" y="205"/>
      <point x="350" y="205" type="curve" smooth="yes"/>
      <point x="290" y="205"/>
      <point x="262" y="245"/>
      <point x="262" y="330" type="curve" smooth="yes"/>
      <point x="262" y="422"/>
      <point x="292" y="580"/>
      <point x="334" y="650" type="curve" smooth="yes"/>
      <point x="361" y="696"/>
      <point x="395" y="719"/>
      <point x="440" y="719" type="curve" smooth="yes"/>
    </contour>
    <contour>
      <point x="972" y="719"/>
      <point x="1000" y="677"/>
      <point x="1000" y="605" type="curve" smooth="yes"/>
      <point x="1000" y="592"/>
      <point x="999" y="579"/>
      <point x="997" y="565" type="curve"/>
      <point x="753" y="565" type="line"/>
      <point x="785" y="669"/>
      <point x="833" y="719"/>
      <point x="914" y="719" type="curve" smooth="yes"/>
    </contour>
  </outline>
</glyph>
<glyph name="circumflex" format="1">
  <advance width="1228"/>
  <unicode hex="02C6"/>
  <outline>
    <contour>
      <point x="760" y="1406"/>
      <point x="740" y="1401"/>
      <point x="723" y="1388" type="curve" smooth="yes"/>
      <point x="400" y="1127" type="line" smooth="yes"/>
      <point x="375" y="1108"/>
      <point x="378" y="1085"/>
      <point x="392" y="1059" type="curve" smooth="yes"/>
      <point x="408" y="1029"/>
      <point x="429" y="1017"/>
      <point x="456" y="1029" type="curve" smooth="yes"/>
      <point x="759" y="1163" type="line"/>
      <point x="1014" y="1029" type="line" smooth="yes"/>
      <point x="1044" y="1013"/>
      <point x="1069" y="1029"/>
      <point x="1086" y="1055" type="curve" smooth="yes"/>
      <point x="1103" y="1081"/>
      <point x="1103" y="1107"/>
      <point x="1084" y="1127" type="curve" smooth="yes"/>
      <point x="833" y="1388" type="line" smooth="yes"/>
      <point x="822" y="1401"/>
      <point x="802" y="1406"/>
      <point x="781" y="1406" type="curve" smooth="yes"/>
    </contour>
  </outline>
</glyph>
<glyph name="ogonek" format="1">
  <advance width="1228"/>
  <unicode hex="02DB"/>
  <outline>
    <contour>
      <point x="512" y="28" type="line"/>
      <point x="356" y="-54"/>
      <point x="229" y="-157"/>
      <point x="229" y="-300" type="curve" smooth="yes"/>
      <point x="229" y="-408"/>
      <point x="312" y="-472"/>
      <point x="451" y="-472" type="curve" smooth="yes"/>
      <point x="530" y="-472"/>
      <point x="622" y="-457"/>
      <point x="688" y="-436" type="curve" smooth="yes"/>
      <point x="718" y="-427"/>
      <point x="734" y="-400"/>
      <point x="728" y="-350" type="curve" smooth="yes"/>
      <point x="722" y="-302"/>
      <point x="703" y="-280"/>
      <point x="676" y="-285" type="curve" smooth="yes"/>
      <point x="636" y="-292"/>
      <point x="596" y="-298"/>
      <point x="557" y="-298" type="curve" smooth="yes"/>
      <point x="508" y="-298"/>
      <point x="479" y="-280"/>
      <point x="479" y="-235" type="curve" smooth="yes"/>
      <point x="479" y="-159"/>
      <point x="585" y="-67"/>
      <point x="719" y="28" type="curve"/>
    </contour>
  </outline>
</glyph>
<glyph name="hungarumlaut" format="1">
  <advance width="1228"/>
  <unicode hex="02DD"/>
  <outline>
    <contour>
      <point x="1137" y="1400"/>
      <point x="1088" y="1395"/>
      <point x="1066" y="1368" type="curve" smooth="yes"/>
      <point x="868" y="1125" type="line" smooth="yes"/>
      <point x="853" y="1106"/>
      <point x="857" y="1081"/>
      <point x="883" y="1067" type="curve" smooth="yes"/>
      <point x="914" y="1050"/>
      <point x="948" y="1050"/>
      <point x="971" y="1066" type="curve" smooth="yes"/>
      <point x="1269" y="1274" type="line" smooth="yes"/>
      <point x="1296" y="1293"/>
      <point x="1290" y="1331"/>
      <point x="1212" y="1366" type="curve" smooth="yes"/>
    </contour>
    <contour>
      <point x="707" y="1400"/>
      <point x="658" y="1395"/>
      <point x="636" y="1368" type="curve" smooth="yes"/>
      <point x="438" y="1125" type="line" smooth="yes"/>
      <point x="423" y="1106"/>
      <point x="427" y="1081"/>
      <point x="453" y="1067" type="curve" smooth="yes"/>
      <point x="484" y="1050"/>
      <point x="518" y="1050"/>
      <point x="541" y="1066" type="curve" smooth="yes"/>
      <point x="839" y="1274" type="line" smooth="yes"/>
      <point x="866" y="1293"/>
      <point x="860" y="1331"/>
      <point x="782" y="1366" type="curve" smooth="yes"/>
    </contour>
  </outline>
</glyph>
<glyph name="Delta" format="1">
  <advance width="1228"/>
  <unicode hex="0394"/>
  <outline>
    <contour>
      <point x="667" y="1209"/>
      <point x="620" y="1192"/>
      <point x="596" y="1144" type="curve" smooth="yes"/>
      <point x="111" y="169" type="line" smooth="yes"/>
      <point x="104" y="154"/>
      <point x="98" y="133"/>
      <point x="92" y="102" type="curve" smooth="yes"/>
      <point x="76" y="17"/>
      <point x="93" y="0"/>
      <point x="138" y="0" type="curve" smooth="yes"/>
      <point x="950" y="0" type="line" smooth="yes"/>
      <point x="995" y="0"/>
      <point x="1014" y="17"/>
      <point x="1030" y="102" type="curve" smooth="yes"/>
      <point x="1036" y="133"/>
      <point x="1037" y="154"/>
      <point x="1035" y="169" type="curve" smooth="yes"/>
      <point x="898" y="1144" type="line" smooth="yes"/>
      <point x="891" y="1190"/>
      <point x="853" y="1209"/>
      <point x="760" y="1209" type="curve" smooth="yes"/>
    </contour>
    <contour>
      <point x="777" y="225" type="line"/>
      <point x="404" y="225" type="line"/>
      <point x="701" y="852" type="line"/>
      <point x="705" y="852" type="line"/>
    </contour>
  </outline>
</glyph>
<glyph name="Omega" format="1">
  <advance width="1228"/>
  <unicode hex="03A9"/>
  <outline>
    <contour>
      <point x="520" y="1209"/>
      <point x="340" y="1122"/>
      <point x="228" y="968" type="curve" smooth="yes"/>
      <point x="141" y="846"/>
      <point x="106" y="696"/>
      <point x="106" y="586" type="curve" smooth="yes"/>
      <point x="106" y="444"/>
      <point x="162" y="322"/>
      <point x="251" y="235" type="curve"/>
      <point x="80" y="235" type="line" smooth="yes"/>
      <point x="35" y="235"/>
      <point x="13" y="212"/>
      <point x="-3" y="117" type="curve" smooth="yes"/>
      <point x="-20" y="22"/>
      <point x="-6" y="0"/>
      <point x="39" y="0" type="curve" smooth="yes"/>
      <point x="407" y="0" type="line" smooth="yes"/>
      <point x="452" y="0"/>
      <point x="475" y="28"/>
      <point x="497" y="153" type="curve" smooth="yes"/>
      <point x="509" y="219"/>
      <point x="509" y="249"/>
      <point x="489" y="264" type="curve" smooth="yes"/>
      <point x="402" y="331"/>
      <point x="366" y="421"/>
      <point x="366" y="545" type="curve" smooth="yes"/>
      <point x="366" y="649"/>
      <point x="393" y="772"/>
      <point x="453" y="856" type="curve" smooth="yes"/>
      <point x="512" y="938"/>
      <point x="599" y="982"/>
      <point x="712" y="982" type="curve" smooth="yes"/>
      <point x="873" y="982"/>
      <point x="947" y="893"/>
      <point x="947" y="730" type="curve" smooth="yes"/>
      <point x="947" y="546"/>
      <point x="882" y="377"/>
      <point x="693" y="264" type="curve" smooth="yes"/>
      <point x="667" y="249"/>
      <point x="657" y="219"/>
      <point x="645" y="153" type="curve" smooth="yes"/>
      <point x="623" y="28"/>
      <point x="636" y="0"/>
      <point x="681" y="0" type="curve" smooth="yes"/>
      <point x="1053" y="0" type="line" smooth="yes"/>
      <point x="1098" y="0"/>
      <point x="1120" y="22"/>
      <point x="1137" y="117" type="curve" smooth="yes"/>
      <point x="1153" y="212"/>
      <point x="1139" y="235"/>
      <point x="1094" y="235" type="curve" smooth="yes"/>
      <point x="939" y="235" type="line"/>
      <point x="1146" y="385"/>
      <point x="1216" y="554"/>
      <point x="1216" y="750" type="curve" smooth="yes"/>
      <point x="1216" y="1035"/>
      <point x="1037" y="1209"/>
      <point x="734" y="1209" type="curve" smooth="yes"/>
    </contour>
  </outline>
</glyph>
<glyph name="mu" format="1">
  <advance width="1228"/>
  <unicode hex="03BC"/>
  <outline>
    <contour>
      <point x="962" y="924" type="line" smooth="yes"/>
      <point x="917" y="924"/>
      <point x="896" y="906"/>
      <point x="888" y="861" type="curve" smooth="yes"/>
      <point x="829" y="528" type="line" smooth="yes"/>
      <point x="801" y="358"/>
      <point x="655" y="215"/>
      <point x="539" y="215" type="curve" smooth="yes"/>
      <point x="459" y="215"/>
      <point x="425" y="255"/>
      <point x="425" y="323" type="curve" smooth="yes"/>
      <point x="425" y="338"/>
      <point x="427" y="355"/>
      <point x="430" y="373" type="curve" smooth="yes"/>
      <point x="516" y="861" type="line" smooth="yes"/>
      <point x="524" y="906"/>
      <point x="509" y="924"/>
      <point x="464" y="924" type="curve" smooth="yes"/>
      <point x="340" y="924" type="line" smooth="yes"/>
      <point x="295" y="924"/>
      <point x="274" y="906"/>
      <point x="266" y="861" type="curve" smooth="yes"/>
      <point x="56" y="-330" type="line" smooth="yes"/>
      <point x="48" y="-375"/>
      <point x="63" y="-393"/>
      <point x="108" y="-393" type="curve" smooth="yes"/>
      <point x="232" y="-393" type="line" smooth="yes"/>
      <point x="277" y="-393"/>
      <point x="298" y="-375"/>
      <point x="306" y="-330" type="curve" smooth="yes"/>
      <point x="363" y="-7" type="line"/>
      <point x="389" y="-17"/>
      <point x="419" y="-22"/>
      <point x="452" y="-22" type="curve" smooth="yes"/>
      <point x="584" y="-22"/>
      <point x="706" y="44"/>
      <point x="804" y="161" type="curve"/>
      <point x="787" y="63" type="line" smooth="yes"/>
      <point x="779" y="18"/>
      <point x="794" y="0"/>
      <point x="839" y="0" type="curve" smooth="yes"/>
      <point x="923" y="0" type="line" smooth="yes"/>
      <point x="968" y="0"/>
      <point x="989" y="18"/>
      <point x="997" y="63" type="curve" smooth="yes"/>
      <point x="1138" y="861" type="line" smooth="yes"/>
      <point x="1146" y="906"/>
      <point x="1131" y="924"/>
      <point x="1086" y="924" type="curve" smooth="yes"/>
    </contour>
  </outline>
</glyph>
<glyph name="quoteright" format="1">
  <advance width="1228"/>
  <unicode hex="2019"/>
  <outline>
    <contour>
      <point x="710" y="1269" type="line" smooth="yes"/>
      <point x="682" y="1269"/>
      <point x="661" y="1255"/>
      <point x="651" y="1229" type="curve" smooth="yes"/>
      <point x="477" y="757" type="line" smooth="yes"/>
      <point x="454" y="695"/>
      <point x="476" y="671"/>
      <point x="542" y="671" type="curve" smooth="yes"/>
      <point x="608" y="671"/>
      <point x="650" y="691"/>
      <point x="679" y="737" type="curve" smooth="yes"/>
      <point x="970" y="1206" type="line" smooth="yes"/>
      <point x="992" y="1241"/>
      <point x="981" y="1269"/>
      <point x="948" y="1269" type="curve" smooth="yes"/>
    </contour>
  </outline>
</glyph>
<glyph name="daggerdbl" format="1">
  <advance width="1228"/>
  <unicode hex="2021"/>
  <outline>
    <contour>
      <point x="662" y="1209"/>
      <point x="641" y="1191"/>
      <point x="633" y="1146" type="curve" smooth="yes"/>
      <point x="608" y="1004" type="line"/>
      <point x="420" y="1004" type="line" smooth="yes"/>
      <point x="375" y="1004"/>
      <point x="353" y="986"/>
      <point x="337" y="891" type="curve" smooth="yes"/>
      <point x="320" y="796"/>
      <point x="335" y="779"/>
      <point x="380" y="779" type="curve" smooth="yes"/>
      <point x="568" y="779" type="line"/>
      <point x="536" y="598" type="line"/>
      <point x="348" y="598" type="line" smooth="yes"/>
      <point x="303" y="598"/>
      <point x="282" y="580"/>
      <point x="265" y="485" type="curve" smooth="yes"/>
      <point x="248" y="390"/>
      <point x="263" y="373"/>
      <point x="308" y="373" type="curve" smooth="yes"/>
      <point x="496" y="373" type="line"/>
      <point x="471" y="231" type="line" smooth="yes"/>
      <point x="463" y="186"/>
      <point x="478" y="168"/>
      <point x="573" y="168" type="curve" smooth="yes"/>
      <point x="668" y="168"/>
      <point x="688" y="186"/>
      <point x="696" y="231" type="curve" smooth="yes"/>
      <point x="721" y="373" type="line"/>
      <point x="910" y="373" type="line" smooth="yes"/>
      <point x="955" y="373"/>
      <point x="976" y="390"/>
      <point x="993" y="485" type="curve" smooth="yes"/>
      <point x="1010" y="580"/>
      <point x="995" y="598"/>
      <point x="950" y="598" type="curve" smooth="yes"/>
      <point x="761" y="598" type="line"/>
      <point x="793" y="779" type="line"/>
      <point x="982" y="779" type="line" smooth="yes"/>
      <point x="1027" y="779"/>
      <point x="1048" y="796"/>
      <point x="1065" y="891" type="curve" smooth="yes"/>
      <point x="1081" y="986"/>
      <point x="1067" y="1004"/>
      <point x="1022" y="1004" type="curve" smooth="yes"/>
      <point x="833" y="1004" type="line"/>
      <point x="858" y="1146" type="line" smooth="yes"/>
      <point x="866" y="1191"/>
      <point x="852" y="1209"/>
      <point x="757" y="1209" type="curve" smooth="yes"/>
    </contour>
  </outline>
</glyph>
<glyph name="foursuperior" format="1">
  <advance width="1228"/>
  <unicode hex="2074"/>
  <outline>
    <contour>
      <point x="850" y="1334"/>
      <point x="808" y="1319"/>
      <point x="782" y="1291" type="curve" smooth="yes"/>
      <point x="332" y="838" type="line" smooth="yes"/>
      <point x="312" y="818"/>
      <point x="303" y="800"/>
      <point x="303" y="775" type="curve" smooth="yes"/>
      <point x="303" y="720"/>
      <point x="327" y="665"/>
      <point x="359" y="665" type="curve" smooth="yes"/>
      <point x="703" y="665" type="line"/>
      <point x="678" y="523" type="line" smooth="yes"/>
      <point x="672" y="492"/>
      <point x="699" y="475"/>
      <point x="777" y="475" type="curve" smooth="yes"/>
      <point x="847" y="475"/>
      <point x="867" y="492"/>
      <point x="873" y="523" type="curve" smooth="yes"/>
      <point x="898" y="665" type="line"/>
      <point x="986" y="665" type="line" smooth="yes"/>
      <point x="1023" y="665"/>
      <point x="1042" y="690"/>
      <point x="1053" y="749" type="curve" smooth="yes"/>
      <point x="1062" y="807"/>
      <point x="1053" y="833"/>
      <point x="1016" y="833" type="curve" smooth="yes"/>
      <point x="927" y="833" type="line"/>
      <point x="1006" y="1280" type="line" smooth="yes"/>
      <point x="1012" y="1312"/>
      <point x="979" y="1334"/>
      <point x="907" y="1334" type="curve" smooth="yes"/>
    </contour>
    <contour>
      <point x="732" y="833" type="line"/>
      <point x="555" y="833" type="line"/>
      <point x="793" y="1084" type="line"/>
    </contour>
  </outline>
</glyph>
<glyph name="franc" format="1">
  <advance width="1228"/>
  <unicode hex="20A3"/>
  <outline>
    <contour>
      <point x="262" y="1187" type="line" smooth="yes"/>
      <point x="217" y="1187"/>
      <point x="196" y="1169"/>
      <point x="181" y="1084" type="curve" smooth="yes"/>
      <point x="166" y="999"/>
      <point x="181" y="982"/>
      <point x="226" y="982" type="curve" smooth="yes"/>
      <point x="353" y="982" type="line"/>
      <point x="216" y="205" type="line"/>
      <point x="89" y="205" type="line" smooth="yes"/>
      <point x="44" y="205"/>
      <point x="22" y="187"/>
      <point x="7" y="102" type="curve" smooth="yes"/>
      <point x="-8" y="17"/>
      <point x="8" y="0"/>
      <point x="53" y="0" type="curve" smooth="yes"/>
      <point x="647" y="0" type="line" smooth="yes"/>
      <point x="692" y="0"/>
      <point x="712" y="17"/>
      <point x="727" y="102" type="curve" smooth="yes"/>
      <point x="742" y="187"/>
      <point x="728" y="205"/>
      <point x="683" y="205" type="curve" smooth="yes"/>
      <point x="466" y="205" type="line"/>
      <point x="601" y="972" type="line"/>
      <point x="991" y="972" type="line"/>
      <point x="973" y="870" type="line" smooth="yes"/>
      <point x="965" y="825"/>
      <point x="985" y="807"/>
      <point x="1070" y="807" type="curve" smooth="yes"/>
      <point x="1155" y="807"/>
      <point x="1195" y="825"/>
      <point x="1203" y="870" type="curve" smooth="yes"/>
      <point x="1247" y="1122" type="line" smooth="yes"/>
      <point x="1255" y="1168"/>
      <point x="1240" y="1187"/>
      <point x="1194" y="1187" type="curve" smooth="yes"/>
    </contour>
    <contour>
      <point x="97" y="424" type="line" smooth="yes"/>
      <point x="52" y="424"/>
      <point x="31" y="406"/>
      <point x="22" y="356" type="curve" smooth="yes"/>
      <point x="13" y="306"/>
      <point x="28" y="288"/>
      <point x="73" y="288" type="curve" smooth="yes"/>
      <point x="865" y="288" type="line" smooth="yes"/>
      <point x="910" y="288"/>
      <point x="931" y="306"/>
      <point x="940" y="356" type="curve" smooth="yes"/>
      <point x="949" y="406"/>
      <point x="934" y="424"/>
      <point x="889" y="424" type="curve" smooth="yes"/>
    </contour>
    <contour>
      <point x="502" y="727" type="line"/>
      <point x="464" y="512" type="line"/>
      <point x="824" y="512" type="line" smooth="yes"/>
      <point x="869" y="512"/>
      <point x="891" y="534"/>
      <point x="906" y="619" type="curve" smooth="yes"/>
      <point x="921" y="704"/>
      <point x="907" y="727"/>
      <point x="862" y="727" type="curve" smooth="yes"/>
    </contour>
  </outline>
</glyph>
<glyph name="won" format="1">
  <advance width="1228"/>
  <unicode hex="20A9"/>
  <outline>
    <contour>
      <point x="97" y="764" type="line" smooth="yes"/>
      <point x="52" y="764"/>
      <point x="32" y="750"/>
      <point x="18" y="671" type="curve" smooth="yes"/>
      <point x="4" y="593"/>
      <point x="20" y="579"/>
      <point x="65" y="579" type="curve" smooth="yes"/>
      <point x="573" y="579" type="line"/>
      <point x="637" y="579" type="line"/>
      <point x="703" y="579" type="line"/>
      <point x="1227" y="579" type="line" smooth="yes"/>
      <point x="1272" y="579"/>
      <point x="1292" y="593"/>
      <point x="1306" y="671" type="curve" smooth="yes"/>
      <point x="1320" y="750"/>
      <point x="1304" y="764"/>
      <point x="1259" y="764" type="curve" smooth="yes"/>
    </contour>
    <component base="W"/>
  </outline>
</glyph>
<glyph name="euro" format="1">
  <advance width="1228"/>
  <unicode hex="20AC"/>
  <outline>
    <contour>
      <point x="1074" y="1209"/>
      <point x="1034" y="1191"/>
      <point x="1026" y="1146" type="curve" smooth="yes"/>
      <point x="1014" y="1079" type="line"/>
      <point x="976" y="1156"/>
      <point x="894" y="1209"/>
      <point x="777" y="1209" type="curve" smooth="yes"/>
      <point x="561" y="1209"/>
      <point x="388" y="1082"/>
      <point x="289" y="850" type="curve"/>
      <point x="202" y="850" type="line" smooth="yes"/>
      <point x="157" y="850"/>
      <point x="136" y="832"/>
      <point x="123" y="757" type="curve" smooth="yes"/>
      <point x="110" y="682"/>
      <point x="125" y="665"/>
      <point x="170" y="665" type="curve" smooth="yes"/>
      <point x="231" y="665" type="line"/>
      <point x="220" y="616"/>
      <point x="213" y="568"/>
      <point x="209" y="522" type="curve"/>
      <point x="145" y="522" type="line" smooth="yes"/>
      <point x="100" y="522"/>
      <point x="78" y="504"/>
      <point x="65" y="429" type="curve" smooth="yes"/>
      <point x="52" y="354"/>
      <point x="67" y="337"/>
      <point x="112" y="337" type="curve" smooth="yes"/>
      <point x="214" y="337" type="line"/>
      <point x="249" y="115"/>
      <point x="393" y="-22"/>
      <point x="620" y="-22" type="curve" smooth="yes"/>
      <point x="752" y="-22"/>
      <point x="904" y="15"/>
      <point x="1055" y="84" type="curve" smooth="yes"/>
      <point x="1102" y="105"/>
      <point x="1116" y="146"/>
      <point x="1092" y="225" type="curve" smooth="yes"/>
      <point x="1069" y="302"/>
      <point x="1037" y="323"/>
      <point x="993" y="303" type="curve" smooth="yes"/>
      <point x="867" y="244"/>
      <point x="763" y="205"/>
      <point x="650" y="205" type="curve" smooth="yes"/>
      <point x="554" y="205"/>
      <point x="500" y="251"/>
      <point x="479" y="337" type="curve"/>
      <point x="664" y="337" type="line" smooth="yes"/>
      <point x="709" y="337"/>
      <point x="730" y="354"/>
      <point x="743" y="429" type="curve" smooth="yes"/>
      <point x="756" y="504"/>
      <point x="742" y="522"/>
      <point x="697" y="522" type="curve" smooth="yes"/>
      <point x="474" y="522" type="line"/>
      <point x="480" y="571"/>
      <point x="488" y="619"/>
      <point x="499" y="665" type="curve"/>
      <point x="722" y="665" type="line" smooth="yes"/>
      <point x="767" y="665"/>
      <point x="788" y="682"/>
      <point x="801" y="757" type="curve" smooth="yes"/>
      <point x="814" y="832"/>
      <point x="799" y="850"/>
      <point x="754" y="850" type="curve" smooth="yes"/>
      <point x="565" y="850" type="line"/>
      <point x="614" y="936"/>
      <point x="681" y="982"/>
      <point x="777" y="982" type="curve" smooth="yes"/>
      <point x="905" y="982"/>
      <point x="961" y="891"/>
      <point x="938" y="762" type="curve" smooth="yes"/>
      <point x="930" y="717"/>
      <point x="950" y="699"/>
      <point x="1045" y="699" type="curve" smooth="yes"/>
      <point x="1140" y="699"/>
      <point x="1180" y="717"/>
      <point x="1188" y="762" type="curve" smooth="yes"/>
      <point x="1256" y="1146" type="line" smooth="yes"/>
      <point x="1264" y="1191"/>
      <point x="1244" y="1209"/>
      <point x="1159" y="1209" type="curve" smooth="yes"/>
    </contour>
  </outline>
</glyph>
<glyph name="summation" format="1">
  <advance width="1228"/>
  <unicode hex="2211"/>
  <outline>
    <contour>
      <point x="392" y="1187" type="line" smooth="yes"/>
      <point x="347" y="1187"/>
      <point x="326" y="1169"/>
      <point x="311" y="1084" type="curve" smooth="yes"/>
      <point x="305" y="1050"/>
      <point x="304" y="1026"/>
      <point x="313" y="1011" type="curve" smooth="yes"/>
      <point x="567" y="607" type="line"/>
      <point x="146" y="176" type="line" smooth="yes"/>
      <point x="131" y="161"/>
      <point x="124" y="137"/>
      <point x="118" y="103" type="curve" smooth="yes"/>
      <point x="103" y="18"/>
      <point x="118" y="0"/>
      <point x="163" y="0" type="curve" smooth="yes"/>
      <point x="917" y="0" type="line" smooth="yes"/>
      <point x="962" y="0"/>
      <point x="984" y="22"/>
      <point x="1001" y="117" type="curve" smooth="yes"/>
      <point x="1017" y="212"/>
      <point x="1003" y="235"/>
      <point x="958" y="235" type="curve" smooth="yes"/>
      <point x="510" y="235" type="line"/>
      <point x="829" y="560" type="line" smooth="yes"/>
      <point x="846" y="578"/>
      <point x="851" y="603"/>
      <point x="839" y="621" type="curve" smooth="yes"/>
      <point x="630" y="952" type="line"/>
      <point x="1065" y="952" type="line" smooth="yes"/>
      <point x="1110" y="952"/>
      <point x="1132" y="974"/>
      <point x="1148" y="1069" type="curve" smooth="yes"/>
      <point x="1165" y="1164"/>
      <point x="1151" y="1187"/>
      <point x="1106" y="1187" type="curve" smooth="yes"/>
    </contour>
    <contour>
      <point x="385" y="-837" type="line"/>
      <point x="385" y="-838" type="line"/>
      <point x="386" y="-838" type="line"/>
      <point x="386" y="-837" type="line"/>
    </contour>
    <contour>
      <point x="850" y="1797" type="line"/>
      <point x="850" y="1796" type="line"/>
      <point x="851" y="1796" type="line"/>
      <point x="851" y="1797" type="line"/>
    </contour>
  </outline>
</glyph>
<glyph name="integral" format="1">
  <advance width="1228"/>
  <unicode hex="222B"/>
  <outline>
    <contour>
      <point x="801" y="1517"/>
      <point x="663" y="1386"/>
      <point x="619" y="1137" type="curve" smooth="yes"/>
      <point x="416" y="-17" type="line" smooth="yes"/>
      <point x="396" y="-132"/>
      <point x="342" y="-183"/>
      <point x="257" y="-183" type="curve" smooth="yes"/>
      <point x="183" y="-183"/>
      <point x="118" y="-159"/>
      <point x="37" y="-119" type="curve" smooth="yes"/>
      <point x="-1" y="-100"/>
      <point x="-36" y="-111"/>
      <point x="-75" y="-188" type="curve" smooth="yes"/>
      <point x="-113" y="-263"/>
      <point x="-108" y="-298"/>
      <point x="-68" y="-320" type="curve" smooth="yes"/>
      <point x="33" y="-376"/>
      <point x="145" y="-410"/>
      <point x="249" y="-410" type="curve" smooth="yes"/>
      <point x="481" y="-410"/>
      <point x="619" y="-279"/>
      <point x="663" y="-30" type="curve" smooth="yes"/>
      <point x="866" y="1124" type="line" smooth="yes"/>
      <point x="886" y="1239"/>
      <point x="940" y="1290"/>
      <point x="1025" y="1290" type="curve" smooth="yes"/>
      <point x="1099" y="1290"/>
      <point x="1164" y="1266"/>
      <point x="1245" y="1226" type="curve" smooth="yes"/>
      <point x="1283" y="1207"/>
      <point x="1318" y="1218"/>
      <point x="1357" y="1295" type="curve" smooth="yes"/>
      <point x="1395" y="1370"/>
      <point x="1390" y="1405"/>
      <point x="1350" y="1427" type="curve" smooth="yes"/>
      <point x="1249" y="1483"/>
      <point x="1137" y="1517"/>
      <point x="1033" y="1517" type="curve" smooth="yes"/>
    </contour>
  </outline>
</glyph>
<glyph name="notequal" format="1">
  <advance width="1228"/>
  <unicode hex="2260"/>
  <outline>
    <contour>
      <point x="893" y="1130"/>
      <point x="868" y="1123"/>
      <point x="843" y="1083" type="curve" smooth="yes"/>
      <point x="744" y="924" type="line"/>
      <point x="614" y="699" type="line"/>
      <point x="469" y="466" type="line"/>
      <point x="339" y="241" type="line"/>
      <point x="295" y="170" type="line" smooth="yes"/>
      <point x="270" y="130"/>
      <point x="274" y="105"/>
      <point x="338" y="70" type="curve" smooth="yes"/>
      <point x="401" y="35"/>
      <point x="426" y="42"/>
      <point x="451" y="82" type="curve" smooth="yes"/>
      <point x="550" y="241" type="line"/>
      <point x="680" y="466" type="line"/>
      <point x="825" y="699" type="line"/>
      <point x="955" y="924" type="line"/>
      <point x="999" y="995" type="line" smooth="yes"/>
      <point x="1024" y="1035"/>
      <point x="1020" y="1060"/>
      <point x="956" y="1095" type="curve" smooth="yes"/>
    </contour>
    <component base="equal"/>
  </outline>
</glyph>
<glyph name="lessequal" format="1">
  <advance width="1228"/>
  <unicode hex="2264"/>
  <outline>
    <contour>
      <point x="293" y="839" type="line" smooth="yes"/>
      <point x="258" y="826"/>
      <point x="241" y="802"/>
      <point x="231" y="745" type="curve" smooth="yes"/>
      <point x="221" y="688"/>
      <point x="230" y="664"/>
      <point x="260" y="651" type="curve" smooth="yes"/>
      <point x="943" y="348" type="line" smooth="yes"/>
      <point x="982" y="331"/>
      <point x="1012" y="345"/>
      <point x="1050" y="432" type="curve" smooth="yes"/>
      <point x="1088" y="520"/>
      <point x="1080" y="543"/>
      <point x="1040" y="559" type="curve" smooth="yes"/>
      <point x="590" y="735" type="line"/>
      <point x="1130" y="921" type="line" smooth="yes"/>
      <point x="1175" y="937"/>
      <point x="1186" y="967"/>
      <point x="1162" y="1051" type="curve" smooth="yes"/>
      <point x="1138" y="1134"/>
      <point x="1112" y="1154"/>
      <point x="1066" y="1136" type="curve" smooth="yes"/>
    </contour>
    <contour>
      <point x="202" y="225" type="line" smooth="yes"/>
      <point x="157" y="225"/>
      <point x="136" y="207"/>
      <point x="119" y="112" type="curve" smooth="yes"/>
      <point x="102" y="17"/>
      <point x="118" y="0"/>
      <point x="163" y="0" type="curve" smooth="yes"/>
      <point x="925" y="0" type="line" smooth="yes"/>
      <point x="970" y="0"/>
      <point x="990" y="17"/>
      <point x="1007" y="112" type="curve" smooth="yes"/>
      <point x="1024" y="207"/>
      <point x="1009" y="225"/>
      <point x="964" y="225" type="curve" smooth="yes"/>
    </contour>
  </outline>
</glyph>
<glyph name="greaterequal" format="1">
  <advance width="1228"/>
  <unicode hex="2265"/>
  <outline>
    <contour>
      <point x="368" y="1159"/>
      <point x="338" y="1145"/>
      <point x="300" y="1058" type="curve" smooth="yes"/>
      <point x="262" y="970"/>
      <point x="270" y="947"/>
      <point x="310" y="931" type="curve"/>
      <point x="760" y="755" type="line"/>
      <point x="220" y="569" type="line" smooth="yes"/>
      <point x="175" y="553"/>
      <point x="164" y="523"/>
      <point x="188" y="439" type="curve" smooth="yes"/>
      <point x="212" y="356"/>
      <point x="238" y="336"/>
      <point x="284" y="354" type="curve" smooth="yes"/>
      <point x="1057" y="651" type="line" smooth="yes"/>
      <point x="1092" y="664"/>
      <point x="1109" y="688"/>
      <point x="1119" y="745" type="curve" smooth="yes"/>
      <point x="1129" y="802"/>
      <point x="1120" y="826"/>
      <point x="1090" y="839" type="curve" smooth="yes"/>
      <point x="407" y="1142" type="line" smooth="yes"/>
    </contour>
    <contour>
      <point x="202" y="225" type="line"/>
      <point x="157" y="225"/>
      <point x="136" y="207"/>
      <point x="119" y="112" type="curve" smooth="yes"/>
      <point x="102" y="17"/>
      <point x="118" y="0"/>
      <point x="163" y="0" type="curve" smooth="yes"/>
      <point x="925" y="0" type="line" smooth="yes"/>
      <point x="970" y="0"/>
      <point x="990" y="17"/>
      <point x="1007" y="112" type="curve" smooth="yes"/>
      <point x="1024" y="207"/>
      <point x="1009" y="225"/>
      <point x="964" y="225" type="curve" smooth="yes"/>
    </contour>
  </outline>
</glyph>
<glyph name="caron.alt" format="1">
  <advance width="1228"/>
  <outline>
    <contour>
      <point x="502" y="1312" type="line" smooth="yes"/>
      <point x="479" y="1312"/>
      <point x="461" y="1300"/>
      <point x="453" y="1279" type="curve" smooth="yes"/>
      <point x="314" y="888" type="line" smooth="yes"/>
      <point x="297" y="840"/>
      <point x="318" y="817"/>
      <point x="373" y="817" type="curve" smooth="yes"/>
      <point x="423" y="817"/>
      <point x="451" y="830"/>
      <point x="475" y="867" type="curve" smooth="yes"/>
      <point x="730" y="1260" type="line" smooth="yes"/>
      <point x="749" y="1289"/>
      <point x="743" y="1312"/>
      <point x="716" y="1312" type="curve" smooth="yes"/>
    </contour>
  </outline>
</glyph>
<glyph name="ellipsis.alt5" format="1">
  <advance width="1228"/>
  <outline>
    <contour>
      <point x="2908" y="394"/>
      <point x="2795" y="294"/>
      <point x="2795" y="161" type="curve" smooth="yes"/>
      <point x="2795" y="61"/>
      <point x="2871" y="-22"/>
      <point x="2978" y="-22" type="curve" smooth="yes"/>
      <point x="3102" y="-22"/>
      <point x="3213" y="79"/>
      <point x="3213" y="212" type="curve" smooth="yes"/>
      <point x="3213" y="312"/>
      <point x="3137" y="394"/>
      <point x="3031" y="394" type="curve" smooth="yes"/>
    </contour>
    <contour>
      <point x="808" y="394"/>
      <point x="695" y="294"/>
      <point x="695" y="161" type="curve" smooth="yes"/>
      <point x="695" y="61"/>
      <point x="771" y="-22"/>
      <point x="878" y="-22" type="curve" smooth="yes"/>
      <point x="1002" y="-22"/>
      <point x="1113" y="79"/>
      <point x="1113" y="212" type="curve" smooth="yes"/>
      <point x="1113" y="312"/>
      <point x="1037" y="394"/>
      <point x="931" y="394" type="curve" smooth="yes"/>
    </contour>
    <contour>
      <point x="1858" y="394"/>
      <point x="1745" y="294"/>
      <point x="1745" y="161" type="curve" smooth="yes"/>
      <point x="1745" y="61"/>
      <point x="1821" y="-22"/>
      <point x="1928" y="-22" type="curve" smooth="yes"/>
      <point x="2052" y="-22"/>
      <point x="2163" y="79"/>
      <point x="2163" y="212" type="curve" smooth="yes"/>
      <point x="2163" y="312"/>
      <point x="2087" y="394"/>
      <point x="1981" y="394" type="curve" smooth="yes"/>
    </contour>
  </outline>
</glyph>
<glyph name="emdash.alt1" format="1">
  <advance width="1228"/>
  <outline>
    <contour>
      <point x="-314" y="695" type="line" smooth="yes"/>
      <point x="-359" y="695"/>
      <point x="-380" y="677"/>
      <point x="-397" y="582" type="curve" smooth="yes"/>
      <point x="-414" y="487"/>
      <point x="-399" y="470"/>
      <point x="-354" y="470" type="curve" smooth="yes"/>
      <point x="1607" y="470" type="line" smooth="yes"/>
      <point x="1652" y="470"/>
      <point x="1673" y="487"/>
      <point x="1690" y="582" type="curve" smooth="yes"/>
      <point x="1707" y="677"/>
      <point x="1692" y="695"/>
      <point x="1647" y="695" type="curve" smooth="yes"/>
    </contour>
  </outline>
</glyph>
<glyph name="emdash.alt3" format="1">
  <advance width="1228"/>
  <outline>
    <contour>
      <point x="399" y="695" type="line" smooth="yes"/>
      <point x="354" y="695"/>
      <point x="333" y="677"/>
      <point x="316" y="582" type="curve" smooth="yes"/>
      <point x="299" y="487"/>
      <point x="314" y="470"/>
      <point x="359" y="470" type="curve" smooth="yes"/>
      <point x="2121" y="470" type="line" smooth="yes"/>
      <point x="2166" y="470"/>
      <point x="2187" y="487"/>
      <point x="2204" y="582" type="curve" smooth="yes"/>
      <point x="2221" y="677"/>
      <point x="2206" y="695"/>
      <point x="2161" y="695" type="curve" smooth="yes"/>
    </contour>
  </outline>
</glyph>
<glyph name="emdash.alt4" format="1">
  <advance width="1228"/>
  <outline>
    <contour>
      <point x="-114" y="695" type="line" smooth="yes"/>
      <point x="-159" y="695"/>
      <point x="-180" y="677"/>
      <point x="-197" y="582" type="curve" smooth="yes"/>
      <point x="-214" y="487"/>
      <point x="-199" y="470"/>
      <point x="-154" y="470" type="curve" smooth="yes"/>
      <point x="1407" y="470" type="line" smooth="yes"/>
      <point x="1452" y="470"/>
      <point x="1473" y="487"/>
      <point x="1490" y="582" type="curve" smooth="yes"/>
      <point x="1507" y="677"/>
      <point x="1492" y="695"/>
      <point x="1447" y="695" type="curve" smooth="yes"/>
    </contour>
  </outline>
</glyph>
